<?xml version="1.0" encoding="utf-8" standalone="no"?>
<!DOCTYPE svg PUBLIC "-//W3C//DTD SVG 1.1//EN"
  "http://www.w3.org/Graphics/SVG/1.1/DTD/svg11.dtd">
<svg xmlns:xlink="http://www.w3.org/1999/xlink" width="782.466187pt" height="393.621719pt" viewBox="0 0 782.466187 393.621719" xmlns="http://www.w3.org/2000/svg" version="1.1">
 <metadata>
  <rdf:RDF xmlns:dc="http://purl.org/dc/elements/1.1/" xmlns:cc="http://creativecommons.org/ns#" xmlns:rdf="http://www.w3.org/1999/02/22-rdf-syntax-ns#">
   <cc:Work>
    <dc:type rdf:resource="http://purl.org/dc/dcmitype/StillImage"/>
    <dc:date>2026-06-09T15:20:23.399348</dc:date>
    <dc:format>image/svg+xml</dc:format>
    <dc:creator>
     <cc:Agent>
      <dc:title>Matplotlib v3.10.9, https://matplotlib.org/</dc:title>
     </cc:Agent>
    </dc:creator>
   </cc:Work>
  </rdf:RDF>
 </metadata>
 <defs>
  <style type="text/css">*{stroke-linejoin: round; stroke-linecap: butt}</style>
 </defs>
 <g id="figure_1">
  <g id="patch_1">
   <path d="M 0 393.621719 
L 782.466187 393.621719 
L 782.466187 0 
L 0 0 
z
" style="fill: #ffffff"/>
  </g>
  <g id="axes_1">
   <g id="patch_2">
    <path d="M 57.436188 355.493125 
L 775.266188 355.493125 
L 775.266188 31.433125 
L 57.436188 31.433125 
z
" style="fill: #ffffff"/>
   </g>
   <g id="matplotlib.axis_1">
    <g id="xtick_1">
     <g id="line2d_1"/>
     <g id="text_1">
      <!-- 512 K -->
      <g style="fill: #4a4a4a" transform="translate(101.31537 366.13375) scale(0.1 -0.1)">
       <defs>
        <path id="HelveticaNeue-35" d="M 3008 3981 
L 3008 4461 
L 768 4461 
L 346 2106 
L 813 2080 
Q 973 2272 1181 2390 
Q 1389 2509 1658 2509 
Q 1888 2509 2077 2432 
Q 2266 2355 2400 2217 
Q 2534 2080 2608 1891 
Q 2682 1702 2682 1478 
Q 2682 1210 2605 1008 
Q 2528 806 2397 672 
Q 2266 538 2090 470 
Q 1914 403 1722 403 
Q 1517 403 1347 464 
Q 1178 525 1053 637 
Q 928 749 854 899 
Q 781 1050 768 1222 
L 224 1222 
Q 230 915 345 672 
Q 461 429 659 265 
Q 858 102 1117 16 
Q 1376 -70 1670 -70 
Q 2067 -70 2364 54 
Q 2662 179 2860 390 
Q 3059 602 3158 874 
Q 3258 1146 3258 1434 
Q 3258 1824 3142 2115 
Q 3027 2406 2828 2601 
Q 2630 2797 2361 2893 
Q 2093 2989 1792 2989 
Q 1562 2989 1328 2909 
Q 1094 2829 947 2662 
L 934 2675 
L 1178 3981 
L 3008 3981 
z
" transform="scale(0.015625)"/>
        <path id="HelveticaNeue-31" d="M 2278 0 
L 2278 4538 
L 1862 4538 
Q 1818 4282 1696 4115 
Q 1574 3949 1398 3853 
Q 1222 3757 1004 3721 
Q 787 3686 557 3686 
L 557 3251 
L 1734 3251 
L 1734 0 
L 2278 0 
z
" transform="scale(0.015625)"/>
        <path id="HelveticaNeue-32" d="M 282 2931 
L 826 2931 
Q 819 3136 867 3337 
Q 915 3539 1024 3699 
Q 1133 3859 1302 3958 
Q 1472 4058 1709 4058 
Q 1888 4058 2048 4000 
Q 2208 3942 2326 3833 
Q 2445 3725 2515 3574 
Q 2586 3424 2586 3238 
Q 2586 3002 2512 2822 
Q 2438 2643 2294 2489 
Q 2150 2336 1932 2185 
Q 1715 2035 1427 1856 
Q 1190 1715 972 1555 
Q 755 1395 582 1184 
Q 410 973 298 688 
Q 186 403 154 0 
L 3117 0 
L 3117 480 
L 787 480 
Q 826 691 950 854 
Q 1075 1018 1251 1158 
Q 1427 1299 1638 1424 
Q 1850 1549 2061 1677 
Q 2272 1811 2470 1958 
Q 2669 2106 2822 2288 
Q 2976 2470 3069 2700 
Q 3162 2931 3162 3232 
Q 3162 3552 3050 3795 
Q 2938 4038 2746 4201 
Q 2554 4365 2294 4451 
Q 2035 4538 1741 4538 
Q 1382 4538 1100 4416 
Q 819 4294 630 4080 
Q 442 3866 352 3571 
Q 262 3277 282 2931 
z
" transform="scale(0.015625)"/>
        <path id="HelveticaNeue-20" transform="scale(0.015625)"/>
        <path id="HelveticaNeue-4b" d="M 499 4570 
L 499 0 
L 1107 0 
L 1107 1600 
L 1869 2310 
L 3520 0 
L 4288 0 
L 2285 2726 
L 4211 4570 
L 3424 4570 
L 1107 2291 
L 1107 4570 
L 499 4570 
z
" transform="scale(0.015625)"/>
       </defs>
       <use xlink:href="#HelveticaNeue-35"/>
       <use xlink:href="#HelveticaNeue-31" transform="translate(55.599991 0)"/>
       <use xlink:href="#HelveticaNeue-32" transform="translate(111.199982 0)"/>
       <use xlink:href="#HelveticaNeue-20" transform="translate(166.799973 0)"/>
       <use xlink:href="#HelveticaNeue-4b" transform="translate(194.59996 0)"/>
      </g>
     </g>
    </g>
    <g id="xtick_2">
     <g id="line2d_2"/>
     <g id="text_2">
      <!-- 1 M -->
      <g style="fill: #4a4a4a" transform="translate(192.132858 366.13375) scale(0.1 -0.1)">
       <defs>
        <path id="HelveticaNeue-4d" d="M 512 4570 
L 512 0 
L 1088 0 
L 1088 3802 
L 1101 3802 
L 2528 0 
L 3046 0 
L 4474 3802 
L 4486 3802 
L 4486 0 
L 5062 0 
L 5062 4570 
L 4230 4570 
L 2784 730 
L 1344 4570 
L 512 4570 
z
" transform="scale(0.015625)"/>
       </defs>
       <use xlink:href="#HelveticaNeue-31"/>
       <use xlink:href="#HelveticaNeue-20" transform="translate(55.599991 0)"/>
       <use xlink:href="#HelveticaNeue-4d" transform="translate(83.399979 0)"/>
      </g>
     </g>
    </g>
    <g id="xtick_3">
     <g id="line2d_3"/>
     <g id="text_3">
      <!-- 2 M -->
      <g style="fill: #4a4a4a" transform="translate(278.410502 366.13375) scale(0.1 -0.1)">
       <use xlink:href="#HelveticaNeue-32"/>
       <use xlink:href="#HelveticaNeue-20" transform="translate(55.599991 0)"/>
       <use xlink:href="#HelveticaNeue-4d" transform="translate(83.399979 0)"/>
      </g>
     </g>
    </g>
    <g id="xtick_4">
     <g id="line2d_4"/>
     <g id="text_4">
      <!-- 4 M -->
      <g style="fill: #4a4a4a" transform="translate(364.688147 366.13375) scale(0.1 -0.1)">
       <defs>
        <path id="HelveticaNeue-34" d="M 2170 1542 
L 646 1542 
L 2157 3763 
L 2170 3763 
L 2170 1542 
z
M 2682 1542 
L 2682 4538 
L 2246 4538 
L 179 1587 
L 179 1062 
L 2170 1062 
L 2170 0 
L 2682 0 
L 2682 1062 
L 3296 1062 
L 3296 1542 
L 2682 1542 
z
" transform="scale(0.015625)"/>
       </defs>
       <use xlink:href="#HelveticaNeue-34"/>
       <use xlink:href="#HelveticaNeue-20" transform="translate(55.599991 0)"/>
       <use xlink:href="#HelveticaNeue-4d" transform="translate(83.399979 0)"/>
      </g>
     </g>
    </g>
    <g id="xtick_5">
     <g id="line2d_5"/>
     <g id="text_5">
      <!-- 8 M -->
      <g style="fill: #4a4a4a" transform="translate(450.965791 366.13375) scale(0.1 -0.1)">
       <defs>
        <path id="HelveticaNeue-38" d="M 992 3360 
Q 992 3533 1056 3661 
Q 1120 3789 1225 3878 
Q 1331 3968 1478 4013 
Q 1626 4058 1786 4058 
Q 2118 4058 2332 3882 
Q 2547 3706 2547 3360 
Q 2547 3014 2336 2822 
Q 2125 2630 1798 2630 
Q 1632 2630 1485 2675 
Q 1338 2720 1229 2809 
Q 1120 2899 1056 3036 
Q 992 3174 992 3360 
z
M 416 3379 
Q 416 3072 589 2813 
Q 762 2554 1050 2438 
Q 666 2304 461 2006 
Q 256 1709 256 1306 
Q 256 960 374 701 
Q 493 442 701 269 
Q 909 96 1190 13 
Q 1472 -70 1798 -70 
Q 2112 -70 2387 19 
Q 2662 109 2864 285 
Q 3066 461 3184 717 
Q 3302 973 3302 1306 
Q 3302 1728 3104 2019 
Q 2906 2310 2496 2438 
Q 2784 2566 2953 2819 
Q 3123 3072 3123 3379 
Q 3123 3597 3046 3805 
Q 2970 4013 2806 4176 
Q 2643 4339 2380 4438 
Q 2118 4538 1747 4538 
Q 1485 4538 1245 4461 
Q 1005 4384 819 4237 
Q 634 4090 525 3875 
Q 416 3661 416 3379 
z
M 832 1280 
Q 832 1478 905 1638 
Q 979 1798 1110 1913 
Q 1242 2029 1418 2089 
Q 1594 2150 1792 2150 
Q 1984 2150 2153 2083 
Q 2323 2016 2451 1901 
Q 2579 1786 2652 1629 
Q 2726 1472 2726 1286 
Q 2726 1094 2659 934 
Q 2592 774 2467 656 
Q 2342 538 2172 470 
Q 2003 403 1798 403 
Q 1376 403 1104 636 
Q 832 870 832 1280 
z
" transform="scale(0.015625)"/>
       </defs>
       <use xlink:href="#HelveticaNeue-38"/>
       <use xlink:href="#HelveticaNeue-20" transform="translate(55.599991 0)"/>
       <use xlink:href="#HelveticaNeue-4d" transform="translate(83.399979 0)"/>
      </g>
     </g>
    </g>
    <g id="xtick_6">
     <g id="line2d_6"/>
     <g id="text_6">
      <!-- 16 M -->
      <g style="fill: #4a4a4a" transform="translate(534.463748 366.13375) scale(0.1 -0.1)">
       <defs>
        <path id="HelveticaNeue-36" d="M 2650 3379 
L 3194 3379 
Q 3142 3942 2809 4240 
Q 2477 4538 1914 4538 
Q 1427 4538 1107 4333 
Q 787 4128 595 3789 
Q 403 3450 323 3011 
Q 243 2573 243 2106 
Q 243 1747 297 1363 
Q 352 979 518 659 
Q 685 339 992 134 
Q 1299 -70 1805 -70 
Q 2234 -70 2525 74 
Q 2816 218 2992 438 
Q 3168 659 3245 928 
Q 3322 1197 3322 1446 
Q 3322 1760 3226 2029 
Q 3130 2298 2954 2496 
Q 2778 2694 2518 2806 
Q 2259 2918 1933 2918 
Q 1562 2918 1277 2777 
Q 992 2637 800 2323 
L 787 2336 
Q 794 2598 838 2899 
Q 883 3200 1001 3459 
Q 1120 3718 1331 3888 
Q 1542 4058 1888 4058 
Q 2214 4058 2412 3872 
Q 2611 3686 2650 3379 
z
M 1830 2438 
Q 2061 2438 2233 2355 
Q 2406 2272 2521 2134 
Q 2637 1997 2691 1808 
Q 2746 1619 2746 1408 
Q 2746 1210 2685 1027 
Q 2624 845 2509 704 
Q 2394 563 2224 483 
Q 2054 403 1830 403 
Q 1606 403 1430 483 
Q 1254 563 1136 697 
Q 1018 832 954 1017 
Q 890 1203 890 1414 
Q 890 1626 950 1814 
Q 1011 2003 1132 2140 
Q 1254 2278 1427 2358 
Q 1600 2438 1830 2438 
z
" transform="scale(0.015625)"/>
       </defs>
       <use xlink:href="#HelveticaNeue-31"/>
       <use xlink:href="#HelveticaNeue-36" transform="translate(55.599991 0)"/>
       <use xlink:href="#HelveticaNeue-20" transform="translate(111.199982 0)"/>
       <use xlink:href="#HelveticaNeue-4d" transform="translate(138.999969 0)"/>
      </g>
     </g>
    </g>
    <g id="xtick_7">
     <g id="line2d_7"/>
     <g id="text_7">
      <!-- 32 M -->
      <g style="fill: #4a4a4a" transform="translate(620.741392 366.13375) scale(0.1 -0.1)">
       <defs>
        <path id="HelveticaNeue-33" d="M 1395 2592 
L 1395 2131 
Q 1549 2150 1722 2150 
Q 1926 2150 2102 2096 
Q 2278 2042 2406 1930 
Q 2534 1818 2611 1654 
Q 2688 1491 2688 1280 
Q 2688 1075 2608 912 
Q 2528 749 2393 637 
Q 2259 525 2080 464 
Q 1901 403 1702 403 
Q 1235 403 992 681 
Q 749 960 736 1402 
L 192 1402 
Q 186 1050 291 774 
Q 397 499 595 310 
Q 794 122 1075 26 
Q 1357 -70 1702 -70 
Q 2022 -70 2307 16 
Q 2592 102 2803 275 
Q 3014 448 3139 707 
Q 3264 966 3264 1306 
Q 3264 1715 3062 2016 
Q 2861 2317 2445 2406 
L 2445 2419 
Q 2714 2541 2893 2777 
Q 3072 3014 3072 3322 
Q 3072 3635 2966 3865 
Q 2861 4096 2675 4243 
Q 2490 4390 2237 4464 
Q 1984 4538 1690 4538 
Q 1350 4538 1091 4429 
Q 832 4320 659 4128 
Q 486 3936 393 3667 
Q 301 3398 288 3072 
L 832 3072 
Q 832 3270 883 3449 
Q 934 3629 1040 3763 
Q 1146 3898 1309 3978 
Q 1472 4058 1690 4058 
Q 2035 4058 2265 3875 
Q 2496 3693 2496 3328 
Q 2496 3149 2425 3008 
Q 2355 2867 2236 2774 
Q 2118 2682 1961 2634 
Q 1805 2586 1632 2586 
L 1517 2586 
Q 1485 2586 1453 2586 
Q 1427 2586 1395 2592 
z
" transform="scale(0.015625)"/>
       </defs>
       <use xlink:href="#HelveticaNeue-33"/>
       <use xlink:href="#HelveticaNeue-32" transform="translate(55.599991 0)"/>
       <use xlink:href="#HelveticaNeue-20" transform="translate(111.199982 0)"/>
       <use xlink:href="#HelveticaNeue-4d" transform="translate(138.999969 0)"/>
      </g>
     </g>
    </g>
    <g id="xtick_8">
     <g id="line2d_8"/>
     <g id="text_8">
      <!-- 64 M -->
      <g style="fill: #4a4a4a" transform="translate(707.019036 366.13375) scale(0.1 -0.1)">
       <use xlink:href="#HelveticaNeue-36"/>
       <use xlink:href="#HelveticaNeue-34" transform="translate(55.599991 0)"/>
       <use xlink:href="#HelveticaNeue-20" transform="translate(111.199982 0)"/>
       <use xlink:href="#HelveticaNeue-4d" transform="translate(138.999969 0)"/>
      </g>
     </g>
    </g>
    <g id="text_9">
     <!-- Input size (bytes) -->
     <g style="fill: #2f2f2f" transform="translate(374.897516 384.144375) scale(0.11 -0.11)">
      <defs>
       <path id="HelveticaNeue-49" d="M 525 4570 
L 525 0 
L 1133 0 
L 1133 4570 
L 525 4570 
z
" transform="scale(0.015625)"/>
       <path id="HelveticaNeue-6e" d="M 410 3309 
L 410 0 
L 954 0 
L 954 1869 
Q 954 2093 1014 2281 
Q 1075 2470 1196 2611 
Q 1318 2752 1500 2829 
Q 1683 2906 1933 2906 
Q 2246 2906 2425 2726 
Q 2605 2547 2605 2240 
L 2605 0 
L 3149 0 
L 3149 2176 
Q 3149 2445 3094 2665 
Q 3040 2886 2905 3046 
Q 2771 3206 2553 3296 
Q 2336 3386 2010 3386 
Q 1274 3386 934 2784 
L 922 2784 
L 922 3309 
L 410 3309 
z
" transform="scale(0.015625)"/>
       <path id="HelveticaNeue-70" d="M 429 3309 
L 429 -1261 
L 973 -1261 
L 973 442 
L 986 442 
Q 1075 294 1206 195 
Q 1338 96 1485 38 
Q 1632 -19 1782 -44 
Q 1933 -70 2054 -70 
Q 2432 -70 2717 64 
Q 3002 198 3190 432 
Q 3379 666 3472 979 
Q 3565 1293 3565 1645 
Q 3565 1997 3469 2310 
Q 3373 2624 3184 2864 
Q 2995 3104 2710 3245 
Q 2426 3386 2042 3386 
Q 1696 3386 1408 3261 
Q 1120 3136 986 2861 
L 973 2861 
L 973 3309 
L 429 3309 
z
M 2989 1683 
Q 2989 1440 2937 1209 
Q 2886 979 2771 800 
Q 2656 621 2467 512 
Q 2278 403 1997 403 
Q 1715 403 1516 508 
Q 1318 614 1193 787 
Q 1069 960 1011 1187 
Q 954 1414 954 1658 
Q 954 1888 1008 2112 
Q 1062 2336 1184 2512 
Q 1306 2688 1498 2797 
Q 1690 2906 1965 2906 
Q 2227 2906 2422 2803 
Q 2618 2701 2742 2528 
Q 2867 2355 2928 2134 
Q 2989 1914 2989 1683 
z
" transform="scale(0.015625)"/>
       <path id="HelveticaNeue-75" d="M 3149 0 
L 3149 3309 
L 2605 3309 
L 2605 1440 
Q 2605 1216 2544 1027 
Q 2483 838 2361 697 
Q 2240 557 2057 480 
Q 1875 403 1626 403 
Q 1312 403 1133 582 
Q 954 762 954 1069 
L 954 3309 
L 410 3309 
L 410 1133 
Q 410 864 464 643 
Q 518 422 652 262 
Q 787 102 1004 16 
Q 1222 -70 1549 -70 
Q 1914 -70 2182 74 
Q 2451 218 2624 525 
L 2637 525 
L 2637 0 
L 3149 0 
z
" transform="scale(0.015625)"/>
       <path id="HelveticaNeue-74" d="M 1165 3309 
L 1165 4301 
L 621 4301 
L 621 3309 
L 58 3309 
L 58 2829 
L 621 2829 
L 621 723 
Q 621 493 665 352 
Q 710 211 803 134 
Q 896 58 1046 29 
Q 1197 0 1408 0 
L 1824 0 
L 1824 480 
L 1574 480 
Q 1446 480 1366 489 
Q 1286 499 1241 531 
Q 1197 563 1181 620 
Q 1165 678 1165 774 
L 1165 2829 
L 1824 2829 
L 1824 3309 
L 1165 3309 
z
" transform="scale(0.015625)"/>
       <path id="HelveticaNeue-73" d="M 742 1043 
L 198 1043 
Q 211 736 326 521 
Q 442 307 634 176 
Q 826 45 1075 -12 
Q 1325 -70 1600 -70 
Q 1850 -70 2102 -22 
Q 2355 26 2556 147 
Q 2758 269 2883 467 
Q 3008 666 3008 966 
Q 3008 1203 2915 1363 
Q 2822 1523 2672 1628 
Q 2522 1734 2326 1798 
Q 2131 1862 1926 1907 
Q 1734 1952 1542 1993 
Q 1350 2035 1196 2096 
Q 1043 2157 944 2249 
Q 845 2342 845 2483 
Q 845 2611 909 2691 
Q 973 2771 1075 2819 
Q 1178 2867 1302 2886 
Q 1427 2906 1549 2906 
Q 1683 2906 1814 2877 
Q 1946 2848 2054 2784 
Q 2163 2720 2233 2614 
Q 2304 2509 2317 2349 
L 2861 2349 
Q 2842 2650 2733 2851 
Q 2624 3053 2441 3171 
Q 2259 3290 2022 3338 
Q 1786 3386 1504 3386 
Q 1286 3386 1065 3331 
Q 845 3277 669 3165 
Q 493 3053 381 2873 
Q 269 2694 269 2445 
Q 269 2125 429 1945 
Q 589 1766 829 1667 
Q 1069 1568 1350 1513 
Q 1632 1459 1872 1392 
Q 2112 1325 2272 1216 
Q 2432 1107 2432 896 
Q 2432 742 2355 643 
Q 2278 544 2160 493 
Q 2042 442 1901 422 
Q 1760 403 1632 403 
Q 1466 403 1309 435 
Q 1152 467 1027 540 
Q 902 614 825 739 
Q 749 864 742 1043 
z
" transform="scale(0.015625)"/>
       <path id="HelveticaNeue-69" d="M 986 3904 
L 986 4570 
L 442 4570 
L 442 3904 
L 986 3904 
z
M 442 3309 
L 442 0 
L 986 0 
L 986 3309 
L 442 3309 
z
" transform="scale(0.015625)"/>
       <path id="HelveticaNeue-7a" d="M 141 416 
L 141 0 
L 2931 0 
L 2931 480 
L 819 480 
L 2842 2938 
L 2842 3309 
L 269 3309 
L 269 2829 
L 2138 2829 
L 141 416 
z
" transform="scale(0.015625)"/>
       <path id="HelveticaNeue-65" d="M 2707 1971 
L 806 1971 
Q 819 2163 889 2332 
Q 960 2502 1081 2630 
Q 1203 2758 1372 2832 
Q 1542 2906 1754 2906 
Q 1958 2906 2128 2832 
Q 2298 2758 2422 2633 
Q 2547 2509 2620 2336 
Q 2694 2163 2707 1971 
z
M 3232 1050 
L 2694 1050 
Q 2624 723 2403 563 
Q 2182 403 1837 403 
Q 1568 403 1369 492 
Q 1171 582 1043 732 
Q 915 883 857 1078 
Q 800 1274 806 1491 
L 3283 1491 
Q 3296 1792 3229 2125 
Q 3162 2458 2986 2739 
Q 2810 3021 2518 3203 
Q 2227 3386 1786 3386 
Q 1446 3386 1161 3258 
Q 877 3130 669 2899 
Q 461 2669 345 2355 
Q 230 2042 230 1664 
Q 243 1286 342 966 
Q 442 646 640 416 
Q 838 186 1129 58 
Q 1421 -70 1818 -70 
Q 2381 -70 2752 211 
Q 3123 493 3232 1050 
z
" transform="scale(0.015625)"/>
       <path id="HelveticaNeue-28" d="M 1306 -1261 
L 1722 -1261 
Q 1267 -525 1072 198 
Q 877 922 877 1728 
Q 877 2515 1069 3232 
Q 1261 3949 1722 4678 
L 1306 4678 
Q 806 4019 553 3251 
Q 301 2483 301 1728 
Q 301 1306 371 922 
Q 442 538 573 173 
Q 704 -192 889 -547 
Q 1075 -902 1306 -1261 
z
" transform="scale(0.015625)"/>
       <path id="HelveticaNeue-62" d="M 429 4570 
L 429 0 
L 973 0 
L 973 442 
L 986 442 
Q 1075 294 1206 195 
Q 1338 96 1485 38 
Q 1632 -19 1782 -44 
Q 1933 -70 2054 -70 
Q 2432 -70 2717 64 
Q 3002 198 3190 432 
Q 3379 666 3472 979 
Q 3565 1293 3565 1645 
Q 3565 1997 3469 2310 
Q 3373 2624 3184 2864 
Q 2995 3104 2710 3245 
Q 2426 3386 2042 3386 
Q 1696 3386 1408 3261 
Q 1120 3136 986 2861 
L 973 2861 
L 973 4570 
L 429 4570 
z
M 2989 1683 
Q 2989 1440 2937 1209 
Q 2886 979 2771 800 
Q 2656 621 2467 512 
Q 2278 403 1997 403 
Q 1715 403 1516 508 
Q 1318 614 1193 787 
Q 1069 960 1011 1187 
Q 954 1414 954 1658 
Q 954 1888 1008 2112 
Q 1062 2336 1184 2512 
Q 1306 2688 1498 2797 
Q 1690 2906 1965 2906 
Q 2227 2906 2422 2803 
Q 2618 2701 2742 2528 
Q 2867 2355 2928 2134 
Q 2989 1914 2989 1683 
z
" transform="scale(0.015625)"/>
       <path id="HelveticaNeue-79" d="M 1709 -442 
Q 1613 -685 1520 -851 
Q 1427 -1018 1315 -1123 
Q 1203 -1229 1065 -1277 
Q 928 -1325 749 -1325 
Q 653 -1325 557 -1312 
Q 461 -1299 371 -1267 
L 371 -768 
Q 442 -800 534 -822 
Q 627 -845 691 -845 
Q 858 -845 970 -765 
Q 1082 -685 1139 -538 
L 1363 19 
L 51 3309 
L 666 3309 
L 1632 602 
L 1645 602 
L 2573 3309 
L 3149 3309 
L 1709 -442 
z
" transform="scale(0.015625)"/>
       <path id="HelveticaNeue-29" d="M -58 -1261 
L 352 -1261 
Q 851 -602 1104 163 
Q 1357 928 1357 1683 
Q 1357 2106 1286 2490 
Q 1216 2874 1085 3242 
Q 954 3610 768 3965 
Q 582 4320 352 4678 
L -58 4678 
Q 390 3942 585 3216 
Q 781 2490 781 1683 
Q 781 902 589 182 
Q 397 -538 -58 -1261 
z
" transform="scale(0.015625)"/>
      </defs>
      <use xlink:href="#HelveticaNeue-49"/>
      <use xlink:href="#HelveticaNeue-6e" transform="translate(25.899994 0)"/>
      <use xlink:href="#HelveticaNeue-70" transform="translate(81.499985 0)"/>
      <use xlink:href="#HelveticaNeue-75" transform="translate(140.799973 0)"/>
      <use xlink:href="#HelveticaNeue-74" transform="translate(196.399963 0)"/>
      <use xlink:href="#HelveticaNeue-20" transform="translate(227.899948 0)"/>
      <use xlink:href="#HelveticaNeue-73" transform="translate(255.699936 0)"/>
      <use xlink:href="#HelveticaNeue-69" transform="translate(305.699921 0)"/>
      <use xlink:href="#HelveticaNeue-7a" transform="translate(327.899918 0)"/>
      <use xlink:href="#HelveticaNeue-65" transform="translate(375.899902 0)"/>
      <use xlink:href="#HelveticaNeue-20" transform="translate(429.599899 0)"/>
      <use xlink:href="#HelveticaNeue-28" transform="translate(457.399887 0)"/>
      <use xlink:href="#HelveticaNeue-62" transform="translate(483.299881 0)"/>
      <use xlink:href="#HelveticaNeue-79" transform="translate(542.599869 0)"/>
      <use xlink:href="#HelveticaNeue-74" transform="translate(592.599854 0)"/>
      <use xlink:href="#HelveticaNeue-65" transform="translate(624.099838 0)"/>
      <use xlink:href="#HelveticaNeue-73" transform="translate(677.799835 0)"/>
      <use xlink:href="#HelveticaNeue-29" transform="translate(727.79982 0)"/>
     </g>
    </g>
   </g>
   <g id="matplotlib.axis_2">
    <g id="ytick_1">
     <g id="line2d_9">
      <path d="M 57.436188 355.493125 
L 775.266188 355.493125 
" clip-path="url(#p77696ba512)" style="fill: none; stroke: #ececec; stroke-width: 0.8; stroke-linecap: square"/>
     </g>
     <g id="line2d_10">
      <defs>
       <path id="m97017366a9" d="M 0 0 
L -3 0 
" style="stroke: #4a4a4a; stroke-width: 0.8"/>
      </defs>
      <g>
       <use xlink:href="#m97017366a9" x="57.436188" y="355.493125" style="fill: #4a4a4a; stroke: #4a4a4a; stroke-width: 0.8"/>
      </g>
     </g>
     <g id="text_10">
      <!-- 0.0 -->
      <g style="fill: #4a4a4a" transform="translate(37.03775 359.063437) scale(0.1 -0.1)">
       <defs>
        <path id="HelveticaNeue-30" d="M 845 2234 
Q 845 2400 848 2601 
Q 851 2803 880 3004 
Q 909 3206 963 3398 
Q 1018 3590 1123 3734 
Q 1229 3878 1389 3968 
Q 1549 4058 1779 4058 
Q 2010 4058 2170 3968 
Q 2330 3878 2435 3734 
Q 2541 3590 2595 3398 
Q 2650 3206 2678 3004 
Q 2707 2803 2710 2601 
Q 2714 2400 2714 2234 
Q 2714 1978 2698 1661 
Q 2682 1344 2595 1065 
Q 2509 787 2317 595 
Q 2125 403 1779 403 
Q 1434 403 1242 595 
Q 1050 787 963 1065 
Q 877 1344 861 1661 
Q 845 1978 845 2234 
z
M 269 2227 
Q 269 1978 281 1709 
Q 294 1440 345 1184 
Q 397 928 493 701 
Q 589 474 755 301 
Q 922 128 1174 29 
Q 1427 -70 1779 -70 
Q 2138 -70 2387 29 
Q 2637 128 2803 301 
Q 2970 474 3066 701 
Q 3162 928 3213 1184 
Q 3264 1440 3277 1709 
Q 3290 1978 3290 2227 
Q 3290 2477 3277 2745 
Q 3264 3014 3213 3270 
Q 3162 3526 3066 3756 
Q 2970 3987 2803 4160 
Q 2637 4333 2384 4435 
Q 2131 4538 1779 4538 
Q 1427 4538 1174 4435 
Q 922 4333 755 4160 
Q 589 3987 493 3756 
Q 397 3526 345 3270 
Q 294 3014 281 2745 
Q 269 2477 269 2227 
z
" transform="scale(0.015625)"/>
        <path id="HelveticaNeue-2e" d="M 531 710 
L 531 0 
L 1242 0 
L 1242 710 
L 531 710 
z
" transform="scale(0.015625)"/>
       </defs>
       <use xlink:href="#HelveticaNeue-30"/>
       <use xlink:href="#HelveticaNeue-2e" transform="translate(55.599991 0)"/>
       <use xlink:href="#HelveticaNeue-30" transform="translate(83.399979 0)"/>
      </g>
     </g>
    </g>
    <g id="ytick_2">
     <g id="line2d_11">
      <path d="M 57.436188 292.189177 
L 775.266188 292.189177 
" clip-path="url(#p77696ba512)" style="fill: none; stroke: #ececec; stroke-width: 0.8; stroke-linecap: square"/>
     </g>
     <g id="line2d_12">
      <g>
       <use xlink:href="#m97017366a9" x="57.436188" y="292.189177" style="fill: #4a4a4a; stroke: #4a4a4a; stroke-width: 0.8"/>
      </g>
     </g>
     <g id="text_11">
      <!-- 0.5 -->
      <g style="fill: #4a4a4a" transform="translate(37.03775 295.759489) scale(0.1 -0.1)">
       <use xlink:href="#HelveticaNeue-30"/>
       <use xlink:href="#HelveticaNeue-2e" transform="translate(55.599991 0)"/>
       <use xlink:href="#HelveticaNeue-35" transform="translate(83.399979 0)"/>
      </g>
     </g>
    </g>
    <g id="ytick_3">
     <g id="line2d_13">
      <path d="M 57.436188 228.885228 
L 775.266188 228.885228 
" clip-path="url(#p77696ba512)" style="fill: none; stroke: #ececec; stroke-width: 0.8; stroke-linecap: square"/>
     </g>
     <g id="line2d_14">
      <g>
       <use xlink:href="#m97017366a9" x="57.436188" y="228.885228" style="fill: #4a4a4a; stroke: #4a4a4a; stroke-width: 0.8"/>
      </g>
     </g>
     <g id="text_12">
      <!-- 1.0 -->
      <g style="fill: #4a4a4a" transform="translate(37.03775 232.455541) scale(0.1 -0.1)">
       <use xlink:href="#HelveticaNeue-31"/>
       <use xlink:href="#HelveticaNeue-2e" transform="translate(55.599991 0)"/>
       <use xlink:href="#HelveticaNeue-30" transform="translate(83.399979 0)"/>
      </g>
     </g>
    </g>
    <g id="ytick_4">
     <g id="line2d_15">
      <path d="M 57.436188 165.58128 
L 775.266188 165.58128 
" clip-path="url(#p77696ba512)" style="fill: none; stroke: #ececec; stroke-width: 0.8; stroke-linecap: square"/>
     </g>
     <g id="line2d_16">
      <g>
       <use xlink:href="#m97017366a9" x="57.436188" y="165.58128" style="fill: #4a4a4a; stroke: #4a4a4a; stroke-width: 0.8"/>
      </g>
     </g>
     <g id="text_13">
      <!-- 1.5 -->
      <g style="fill: #4a4a4a" transform="translate(37.03775 169.151593) scale(0.1 -0.1)">
       <use xlink:href="#HelveticaNeue-31"/>
       <use xlink:href="#HelveticaNeue-2e" transform="translate(55.599991 0)"/>
       <use xlink:href="#HelveticaNeue-35" transform="translate(83.399979 0)"/>
      </g>
     </g>
    </g>
    <g id="ytick_5">
     <g id="line2d_17">
      <path d="M 57.436188 102.277332 
L 775.266188 102.277332 
" clip-path="url(#p77696ba512)" style="fill: none; stroke: #ececec; stroke-width: 0.8; stroke-linecap: square"/>
     </g>
     <g id="line2d_18">
      <g>
       <use xlink:href="#m97017366a9" x="57.436188" y="102.277332" style="fill: #4a4a4a; stroke: #4a4a4a; stroke-width: 0.8"/>
      </g>
     </g>
     <g id="text_14">
      <!-- 2.0 -->
      <g style="fill: #4a4a4a" transform="translate(37.03775 105.847644) scale(0.1 -0.1)">
       <use xlink:href="#HelveticaNeue-32"/>
       <use xlink:href="#HelveticaNeue-2e" transform="translate(55.599991 0)"/>
       <use xlink:href="#HelveticaNeue-30" transform="translate(83.399979 0)"/>
      </g>
     </g>
    </g>
    <g id="ytick_6">
     <g id="line2d_19">
      <path d="M 57.436188 38.973383 
L 775.266188 38.973383 
" clip-path="url(#p77696ba512)" style="fill: none; stroke: #ececec; stroke-width: 0.8; stroke-linecap: square"/>
     </g>
     <g id="line2d_20">
      <g>
       <use xlink:href="#m97017366a9" x="57.436188" y="38.973383" style="fill: #4a4a4a; stroke: #4a4a4a; stroke-width: 0.8"/>
      </g>
     </g>
     <g id="text_15">
      <!-- 2.5 -->
      <g style="fill: #4a4a4a" transform="translate(37.03775 42.543696) scale(0.1 -0.1)">
       <use xlink:href="#HelveticaNeue-32"/>
       <use xlink:href="#HelveticaNeue-2e" transform="translate(55.599991 0)"/>
       <use xlink:href="#HelveticaNeue-35" transform="translate(83.399979 0)"/>
      </g>
     </g>
    </g>
    <g id="text_16">
     <!-- Runtime relative to COBRA median -->
     <g style="fill: #2f2f2f" transform="translate(15.054687 279.859531) rotate(-90) scale(0.11 -0.11)">
      <defs>
       <path id="HelveticaNeue-52" d="M 499 4570 
L 499 0 
L 1107 0 
L 1107 1952 
L 2592 1952 
Q 2816 1952 2950 1885 
Q 3085 1818 3168 1706 
Q 3251 1594 3289 1443 
Q 3328 1293 3354 1126 
Q 3386 960 3392 787 
Q 3398 614 3404 464 
Q 3411 314 3433 192 
Q 3456 70 3520 0 
L 4198 0 
Q 4102 115 4054 265 
Q 4006 416 3980 582 
Q 3955 749 3948 921 
Q 3942 1094 3930 1261 
Q 3910 1427 3875 1580 
Q 3840 1734 3766 1859 
Q 3693 1984 3568 2073 
Q 3443 2163 3245 2202 
L 3245 2214 
Q 3661 2330 3849 2643 
Q 4038 2957 4038 3373 
Q 4038 3930 3670 4250 
Q 3302 4570 2650 4570 
L 499 4570 
z
M 2374 2464 
L 1107 2464 
L 1107 4058 
L 2618 4058 
Q 3046 4058 3238 3840 
Q 3430 3622 3430 3277 
Q 3430 3027 3344 2870 
Q 3258 2714 3114 2621 
Q 2970 2528 2778 2496 
Q 2586 2464 2374 2464 
z
" transform="scale(0.015625)"/>
       <path id="HelveticaNeue-6d" d="M 410 3309 
L 410 0 
L 954 0 
L 954 2061 
Q 954 2157 1002 2301 
Q 1050 2445 1155 2579 
Q 1261 2714 1430 2810 
Q 1600 2906 1837 2906 
Q 2022 2906 2140 2851 
Q 2259 2797 2329 2697 
Q 2400 2598 2429 2464 
Q 2458 2330 2458 2170 
L 2458 0 
L 3002 0 
L 3002 2061 
Q 3002 2445 3232 2675 
Q 3462 2906 3866 2906 
Q 4064 2906 4189 2848 
Q 4314 2790 4384 2691 
Q 4454 2592 4480 2457 
Q 4506 2323 4506 2170 
L 4506 0 
L 5050 0 
L 5050 2426 
Q 5050 2682 4970 2864 
Q 4890 3046 4746 3161 
Q 4602 3277 4400 3331 
Q 4198 3386 3949 3386 
Q 3622 3386 3350 3238 
Q 3078 3091 2912 2822 
Q 2810 3130 2560 3258 
Q 2310 3386 2003 3386 
Q 1306 3386 934 2822 
L 922 2822 
L 922 3309 
L 410 3309 
z
" transform="scale(0.015625)"/>
       <path id="HelveticaNeue-72" d="M 390 3309 
L 390 0 
L 934 0 
L 934 1472 
Q 934 1792 998 2038 
Q 1062 2285 1203 2457 
Q 1344 2630 1574 2720 
Q 1805 2810 2131 2810 
L 2131 3386 
Q 1690 3398 1402 3206 
Q 1114 3014 915 2611 
L 902 2611 
L 902 3309 
L 390 3309 
z
" transform="scale(0.015625)"/>
       <path id="HelveticaNeue-6c" d="M 442 4570 
L 442 0 
L 986 0 
L 986 4570 
L 442 4570 
z
" transform="scale(0.015625)"/>
       <path id="HelveticaNeue-61" d="M 3341 13 
Q 3200 -70 2950 -70 
Q 2739 -70 2614 48 
Q 2490 166 2490 435 
Q 2266 166 1968 48 
Q 1670 -70 1325 -70 
Q 1101 -70 899 -19 
Q 698 32 550 141 
Q 403 250 316 426 
Q 230 602 230 851 
Q 230 1133 326 1312 
Q 422 1491 579 1603 
Q 736 1715 937 1772 
Q 1139 1830 1350 1869 
Q 1574 1914 1776 1936 
Q 1978 1958 2131 2000 
Q 2285 2042 2374 2122 
Q 2464 2202 2464 2355 
Q 2464 2534 2397 2643 
Q 2330 2752 2224 2809 
Q 2118 2867 1987 2886 
Q 1856 2906 1728 2906 
Q 1382 2906 1152 2774 
Q 922 2643 902 2278 
L 358 2278 
Q 371 2586 486 2797 
Q 602 3008 794 3139 
Q 986 3270 1232 3328 
Q 1478 3386 1760 3386 
Q 1984 3386 2205 3354 
Q 2426 3322 2605 3222 
Q 2784 3123 2893 2944 
Q 3002 2765 3002 2477 
L 3002 774 
Q 3002 582 3024 492 
Q 3046 403 3174 403 
Q 3245 403 3341 435 
L 3341 13 
z
M 2458 1709 
Q 2355 1632 2188 1597 
Q 2022 1562 1840 1539 
Q 1658 1517 1472 1488 
Q 1286 1459 1139 1395 
Q 992 1331 899 1212 
Q 806 1094 806 890 
Q 806 755 860 662 
Q 915 570 1001 512 
Q 1088 454 1203 428 
Q 1318 403 1446 403 
Q 1715 403 1907 476 
Q 2099 550 2220 662 
Q 2342 774 2400 905 
Q 2458 1037 2458 1152 
L 2458 1709 
z
" transform="scale(0.015625)"/>
       <path id="HelveticaNeue-76" d="M 1901 0 
L 3110 3309 
L 2541 3309 
L 1638 550 
L 1626 550 
L 698 3309 
L 90 3309 
L 1318 0 
L 1901 0 
z
" transform="scale(0.015625)"/>
       <path id="HelveticaNeue-6f" d="M 806 1651 
Q 806 1952 886 2185 
Q 966 2419 1107 2579 
Q 1248 2739 1437 2822 
Q 1626 2906 1837 2906 
Q 2048 2906 2237 2822 
Q 2426 2739 2566 2579 
Q 2707 2419 2787 2185 
Q 2867 1952 2867 1651 
Q 2867 1350 2787 1116 
Q 2707 883 2566 726 
Q 2426 570 2237 486 
Q 2048 403 1837 403 
Q 1626 403 1437 486 
Q 1248 570 1107 726 
Q 966 883 886 1116 
Q 806 1350 806 1651 
z
M 230 1651 
Q 230 1286 332 972 
Q 435 659 640 425 
Q 845 192 1145 61 
Q 1446 -70 1837 -70 
Q 2234 -70 2531 61 
Q 2829 192 3033 425 
Q 3238 659 3340 972 
Q 3443 1286 3443 1651 
Q 3443 2016 3340 2333 
Q 3238 2650 3033 2883 
Q 2829 3117 2531 3251 
Q 2234 3386 1837 3386 
Q 1446 3386 1145 3251 
Q 845 3117 640 2883 
Q 435 2650 332 2333 
Q 230 2016 230 1651 
z
" transform="scale(0.015625)"/>
       <path id="HelveticaNeue-43" d="M 3712 3194 
L 4320 3194 
Q 4269 3558 4102 3836 
Q 3936 4115 3686 4300 
Q 3437 4486 3117 4582 
Q 2797 4678 2438 4678 
Q 1914 4678 1507 4489 
Q 1101 4301 829 3974 
Q 557 3648 416 3209 
Q 275 2771 275 2272 
Q 275 1773 406 1337 
Q 538 902 800 582 
Q 1062 262 1459 80 
Q 1856 -102 2387 -102 
Q 3264 -102 3769 378 
Q 4275 858 4365 1722 
L 3757 1722 
Q 3738 1440 3642 1197 
Q 3546 954 3376 778 
Q 3206 602 2972 502 
Q 2739 403 2438 403 
Q 2029 403 1734 556 
Q 1440 710 1251 969 
Q 1062 1229 972 1577 
Q 883 1926 883 2317 
Q 883 2675 972 3008 
Q 1062 3341 1251 3600 
Q 1440 3859 1731 4012 
Q 2022 4166 2432 4166 
Q 2912 4166 3261 3923 
Q 3610 3680 3712 3194 
z
" transform="scale(0.015625)"/>
       <path id="HelveticaNeue-4f" d="M 851 2285 
Q 851 2630 940 2966 
Q 1030 3302 1222 3571 
Q 1414 3840 1715 4003 
Q 2016 4166 2432 4166 
Q 2848 4166 3149 4003 
Q 3450 3840 3642 3571 
Q 3834 3302 3923 2966 
Q 4013 2630 4013 2285 
Q 4013 1939 3923 1603 
Q 3834 1267 3642 998 
Q 3450 730 3149 566 
Q 2848 403 2432 403 
Q 2016 403 1715 566 
Q 1414 730 1222 998 
Q 1030 1267 940 1603 
Q 851 1939 851 2285 
z
M 243 2285 
Q 243 1818 380 1386 
Q 518 954 793 621 
Q 1069 288 1478 93 
Q 1888 -102 2432 -102 
Q 2976 -102 3385 93 
Q 3795 288 4070 621 
Q 4346 954 4483 1386 
Q 4621 1818 4621 2285 
Q 4621 2752 4483 3184 
Q 4346 3616 4070 3949 
Q 3795 4282 3385 4480 
Q 2976 4678 2432 4678 
Q 1888 4678 1478 4480 
Q 1069 4282 793 3949 
Q 518 3616 380 3184 
Q 243 2752 243 2285 
z
" transform="scale(0.015625)"/>
       <path id="HelveticaNeue-42" d="M 1107 2605 
L 1107 4058 
L 2323 4058 
Q 2522 4058 2698 4035 
Q 2874 4013 3008 3936 
Q 3142 3859 3219 3718 
Q 3296 3578 3296 3334 
Q 3296 2970 3069 2787 
Q 2842 2605 2323 2605 
L 1107 2605 
z
M 499 4570 
L 499 0 
L 2707 0 
Q 3046 0 3305 112 
Q 3565 224 3741 406 
Q 3917 589 4006 825 
Q 4096 1062 4096 1312 
Q 4096 1734 3872 2028 
Q 3648 2323 3226 2413 
L 3226 2426 
Q 3552 2554 3728 2819 
Q 3904 3085 3904 3450 
Q 3904 3795 3747 4032 
Q 3590 4269 3366 4403 
Q 3264 4467 3120 4499 
Q 2976 4531 2809 4547 
Q 2643 4563 2473 4566 
Q 2304 4570 2157 4570 
L 499 4570 
z
M 1107 512 
L 1107 2093 
L 2496 2093 
Q 2688 2093 2867 2057 
Q 3046 2022 3184 1936 
Q 3322 1850 3405 1702 
Q 3488 1555 3488 1331 
Q 3488 947 3261 729 
Q 3034 512 2630 512 
L 1107 512 
z
" transform="scale(0.015625)"/>
       <path id="HelveticaNeue-41" d="M 1286 1888 
L 2061 4019 
L 2074 4019 
L 2835 1888 
L 1286 1888 
z
M 1741 4570 
L -38 0 
L 582 0 
L 1094 1376 
L 3027 1376 
L 3526 0 
L 4198 0 
L 2413 4570 
L 1741 4570 
z
" transform="scale(0.015625)"/>
       <path id="HelveticaNeue-64" d="M 806 1626 
Q 806 1869 857 2099 
Q 909 2330 1024 2509 
Q 1139 2688 1331 2797 
Q 1523 2906 1798 2906 
Q 2080 2906 2278 2800 
Q 2477 2694 2601 2521 
Q 2726 2349 2784 2121 
Q 2842 1894 2842 1651 
Q 2842 1421 2787 1197 
Q 2733 973 2611 797 
Q 2490 621 2298 512 
Q 2106 403 1830 403 
Q 1568 403 1373 505 
Q 1178 608 1053 781 
Q 928 954 867 1174 
Q 806 1395 806 1626 
z
M 3366 0 
L 3366 4570 
L 2822 4570 
L 2822 2867 
L 2810 2867 
Q 2720 3014 2589 3113 
Q 2458 3213 2310 3273 
Q 2163 3334 2016 3360 
Q 1869 3386 1741 3386 
Q 1363 3386 1078 3248 
Q 794 3110 605 2876 
Q 416 2643 323 2329 
Q 230 2016 230 1664 
Q 230 1312 326 998 
Q 422 685 611 448 
Q 800 211 1085 70 
Q 1370 -70 1754 -70 
Q 2099 -70 2387 51 
Q 2675 173 2810 448 
L 2822 448 
L 2822 0 
L 3366 0 
z
" transform="scale(0.015625)"/>
      </defs>
      <use xlink:href="#HelveticaNeue-52"/>
      <use xlink:href="#HelveticaNeue-75" transform="translate(68.499985 0)"/>
      <use xlink:href="#HelveticaNeue-6e" transform="translate(124.099976 0)"/>
      <use xlink:href="#HelveticaNeue-74" transform="translate(179.699966 0)"/>
      <use xlink:href="#HelveticaNeue-69" transform="translate(211.199951 0)"/>
      <use xlink:href="#HelveticaNeue-6d" transform="translate(233.399948 0)"/>
      <use xlink:href="#HelveticaNeue-65" transform="translate(318.699936 0)"/>
      <use xlink:href="#HelveticaNeue-20" transform="translate(372.399933 0)"/>
      <use xlink:href="#HelveticaNeue-72" transform="translate(400.199921 0)"/>
      <use xlink:href="#HelveticaNeue-65" transform="translate(431.749908 0)"/>
      <use xlink:href="#HelveticaNeue-6c" transform="translate(485.449905 0)"/>
      <use xlink:href="#HelveticaNeue-61" transform="translate(507.649902 0)"/>
      <use xlink:href="#HelveticaNeue-74" transform="translate(561.349899 0)"/>
      <use xlink:href="#HelveticaNeue-69" transform="translate(592.849884 0)"/>
      <use xlink:href="#HelveticaNeue-76" transform="translate(615.049881 0)"/>
      <use xlink:href="#HelveticaNeue-65" transform="translate(665.049866 0)"/>
      <use xlink:href="#HelveticaNeue-20" transform="translate(718.749863 0)"/>
      <use xlink:href="#HelveticaNeue-74" transform="translate(746.54985 0)"/>
      <use xlink:href="#HelveticaNeue-6f" transform="translate(778.049835 0)"/>
      <use xlink:href="#HelveticaNeue-20" transform="translate(835.449829 0)"/>
      <use xlink:href="#HelveticaNeue-43" transform="translate(863.249817 0)"/>
      <use xlink:href="#HelveticaNeue-4f" transform="translate(935.449799 0)"/>
      <use xlink:href="#HelveticaNeue-42" transform="translate(1011.449783 0)"/>
      <use xlink:href="#HelveticaNeue-52" transform="translate(1079.949768 0)"/>
      <use xlink:href="#HelveticaNeue-41" transform="translate(1148.449753 0)"/>
      <use xlink:href="#HelveticaNeue-20" transform="translate(1213.249741 0)"/>
      <use xlink:href="#HelveticaNeue-6d" transform="translate(1241.049728 0)"/>
      <use xlink:href="#HelveticaNeue-65" transform="translate(1326.349716 0)"/>
      <use xlink:href="#HelveticaNeue-64" transform="translate(1380.049713 0)"/>
      <use xlink:href="#HelveticaNeue-69" transform="translate(1439.349701 0)"/>
      <use xlink:href="#HelveticaNeue-61" transform="translate(1461.549698 0)"/>
      <use xlink:href="#HelveticaNeue-6e" transform="translate(1515.249695 0)"/>
     </g>
     <!-- (median ± IQR, lower is faster) -->
     <g style="fill: #2f2f2f" transform="translate(26.870406 267.449297) rotate(-90) scale(0.11 -0.11)">
      <defs>
       <path id="HelveticaNeue-b1" d="M 307 435 
L 307 0 
L 3533 0 
L 3533 435 
L 307 435 
z
M 307 2170 
L 307 1734 
L 1702 1734 
L 1702 666 
L 2138 666 
L 2138 1734 
L 3533 1734 
L 3533 2170 
L 2138 2170 
L 2138 3232 
L 1702 3232 
L 1702 2170 
L 307 2170 
z
" transform="scale(0.015625)"/>
       <path id="HelveticaNeue-51" d="M 2880 1306 
L 2560 934 
L 3066 531 
Q 2758 403 2432 403 
Q 2016 403 1715 566 
Q 1414 730 1222 998 
Q 1030 1267 940 1603 
Q 851 1939 851 2285 
Q 851 2630 940 2966 
Q 1030 3302 1222 3571 
Q 1414 3840 1715 4003 
Q 2016 4166 2432 4166 
Q 2848 4166 3149 4003 
Q 3450 3840 3642 3571 
Q 3834 3302 3923 2966 
Q 4013 2630 4013 2285 
Q 4013 1862 3885 1475 
Q 3757 1088 3488 819 
L 2880 1306 
z
M 4224 -390 
L 4531 -6 
L 3930 467 
Q 4275 813 4448 1286 
Q 4621 1760 4621 2285 
Q 4621 2752 4483 3184 
Q 4346 3616 4070 3949 
Q 3795 4282 3385 4480 
Q 2976 4678 2432 4678 
Q 1888 4678 1478 4480 
Q 1069 4282 793 3949 
Q 518 3616 380 3184 
Q 243 2752 243 2285 
Q 243 1818 380 1386 
Q 518 954 793 621 
Q 1069 288 1478 93 
Q 1888 -102 2432 -102 
Q 3066 -102 3526 166 
L 4224 -390 
z
" transform="scale(0.015625)"/>
       <path id="HelveticaNeue-2c" d="M 531 710 
L 531 0 
L 909 0 
Q 915 -77 899 -166 
Q 883 -256 838 -342 
Q 794 -429 720 -502 
Q 646 -576 538 -614 
L 538 -934 
Q 909 -826 1075 -563 
Q 1242 -301 1242 64 
L 1242 710 
L 531 710 
z
" transform="scale(0.015625)"/>
       <path id="HelveticaNeue-77" d="M 3686 0 
L 4742 3309 
L 4179 3309 
L 3437 602 
L 3424 602 
L 2733 3309 
L 2138 3309 
L 1472 602 
L 1459 602 
L 710 3309 
L 109 3309 
L 1171 0 
L 1760 0 
L 2426 2630 
L 2438 2630 
L 3110 0 
L 3686 0 
z
" transform="scale(0.015625)"/>
       <path id="HelveticaNeue-66" d="M 634 2829 
L 634 0 
L 1178 0 
L 1178 2829 
L 1818 2829 
L 1818 3309 
L 1178 3309 
L 1178 3770 
Q 1178 3987 1286 4064 
Q 1395 4141 1594 4141 
Q 1664 4141 1747 4131 
Q 1830 4122 1901 4096 
L 1901 4570 
Q 1824 4595 1725 4608 
Q 1626 4621 1549 4621 
Q 1101 4621 867 4413 
Q 634 4205 634 3802 
L 634 3309 
L 77 3309 
L 77 2829 
L 634 2829 
z
" transform="scale(0.015625)"/>
      </defs>
      <use xlink:href="#HelveticaNeue-28"/>
      <use xlink:href="#HelveticaNeue-6d" transform="translate(25.899994 0)"/>
      <use xlink:href="#HelveticaNeue-65" transform="translate(111.199982 0)"/>
      <use xlink:href="#HelveticaNeue-64" transform="translate(164.899979 0)"/>
      <use xlink:href="#HelveticaNeue-69" transform="translate(224.199966 0)"/>
      <use xlink:href="#HelveticaNeue-61" transform="translate(246.399963 0)"/>
      <use xlink:href="#HelveticaNeue-6e" transform="translate(300.09996 0)"/>
      <use xlink:href="#HelveticaNeue-20" transform="translate(355.699951 0)"/>
      <use xlink:href="#HelveticaNeue-b1" transform="translate(383.499939 0)"/>
      <use xlink:href="#HelveticaNeue-20" transform="translate(443.499924 0)"/>
      <use xlink:href="#HelveticaNeue-49" transform="translate(471.299911 0)"/>
      <use xlink:href="#HelveticaNeue-51" transform="translate(497.199905 0)"/>
      <use xlink:href="#HelveticaNeue-52" transform="translate(573.19989 0)"/>
      <use xlink:href="#HelveticaNeue-2c" transform="translate(641.699875 0)"/>
      <use xlink:href="#HelveticaNeue-20" transform="translate(669.499863 0)"/>
      <use xlink:href="#HelveticaNeue-6c" transform="translate(697.29985 0)"/>
      <use xlink:href="#HelveticaNeue-6f" transform="translate(719.499847 0)"/>
      <use xlink:href="#HelveticaNeue-77" transform="translate(776.899841 0)"/>
      <use xlink:href="#HelveticaNeue-65" transform="translate(852.699829 0)"/>
      <use xlink:href="#HelveticaNeue-72" transform="translate(906.399826 0)"/>
      <use xlink:href="#HelveticaNeue-20" transform="translate(939.699814 0)"/>
      <use xlink:href="#HelveticaNeue-69" transform="translate(967.499802 0)"/>
      <use xlink:href="#HelveticaNeue-73" transform="translate(989.699799 0)"/>
      <use xlink:href="#HelveticaNeue-20" transform="translate(1039.699783 0)"/>
      <use xlink:href="#HelveticaNeue-66" transform="translate(1067.499771 0)"/>
      <use xlink:href="#HelveticaNeue-61" transform="translate(1097.099762 0)"/>
      <use xlink:href="#HelveticaNeue-73" transform="translate(1150.799759 0)"/>
      <use xlink:href="#HelveticaNeue-74" transform="translate(1200.799744 0)"/>
      <use xlink:href="#HelveticaNeue-65" transform="translate(1232.299728 0)"/>
      <use xlink:href="#HelveticaNeue-72" transform="translate(1285.999725 0)"/>
      <use xlink:href="#HelveticaNeue-29" transform="translate(1319.299713 0)"/>
     </g>
    </g>
   </g>
   <g id="line2d_21">
    <path d="M 57.436188 228.885228 
L 775.266188 228.885228 
" clip-path="url(#p77696ba512)" style="fill: none; stroke-dasharray: 3.6,2.7; stroke-dashoffset: 0; stroke: #555555; stroke-opacity: 0.6; stroke-width: 0.9"/>
   </g>
   <g id="patch_3">
    <path d="M 57.436188 355.493125 
L 57.436188 31.433125 
" style="fill: none; stroke: #c9c9c9; stroke-width: 0.8; stroke-linejoin: miter; stroke-linecap: square"/>
   </g>
   <g id="patch_4">
    <path d="M 57.436188 355.493125 
L 775.266188 355.493125 
" style="fill: none; stroke: #c9c9c9; stroke-width: 0.8; stroke-linejoin: miter; stroke-linecap: square"/>
   </g>
   <g id="patch_5">
    <path d="M 79.005599 355.493125 
L 93.155132 355.493125 
L 93.155132 228.885228 
L 79.005599 228.885228 
z
" clip-path="url(#p77696ba512)" style="fill: #009e73; stroke: #ffffff; stroke-width: 0.8; stroke-linejoin: miter"/>
   </g>
   <g id="patch_6">
    <path d="M 165.283243 355.493125 
L 179.432776 355.493125 
L 179.432776 228.885228 
L 165.283243 228.885228 
z
" clip-path="url(#p77696ba512)" style="fill: #009e73; stroke: #ffffff; stroke-width: 0.8; stroke-linejoin: miter"/>
   </g>
   <g id="patch_7">
    <path d="M 251.560887 355.493125 
L 265.710421 355.493125 
L 265.710421 228.885228 
L 251.560887 228.885228 
z
" clip-path="url(#p77696ba512)" style="fill: #009e73; stroke: #ffffff; stroke-width: 0.8; stroke-linejoin: miter"/>
   </g>
   <g id="patch_8">
    <path d="M 337.838531 355.493125 
L 351.988065 355.493125 
L 351.988065 228.885228 
L 337.838531 228.885228 
z
" clip-path="url(#p77696ba512)" style="fill: #009e73; stroke: #ffffff; stroke-width: 0.8; stroke-linejoin: miter"/>
   </g>
   <g id="patch_9">
    <path d="M 424.116175 355.493125 
L 438.265709 355.493125 
L 438.265709 228.885228 
L 424.116175 228.885228 
z
" clip-path="url(#p77696ba512)" style="fill: #009e73; stroke: #ffffff; stroke-width: 0.8; stroke-linejoin: miter"/>
   </g>
   <g id="patch_10">
    <path d="M 510.39382 355.493125 
L 524.543353 355.493125 
L 524.543353 228.885228 
L 510.39382 228.885228 
z
" clip-path="url(#p77696ba512)" style="fill: #009e73; stroke: #ffffff; stroke-width: 0.8; stroke-linejoin: miter"/>
   </g>
   <g id="patch_11">
    <path d="M 596.671464 355.493125 
L 610.820998 355.493125 
L 610.820998 228.885228 
L 596.671464 228.885228 
z
" clip-path="url(#p77696ba512)" style="fill: #009e73; stroke: #ffffff; stroke-width: 0.8; stroke-linejoin: miter"/>
   </g>
   <g id="patch_12">
    <path d="M 682.949108 355.493125 
L 697.098642 355.493125 
L 697.098642 228.885228 
L 682.949108 228.885228 
z
" clip-path="url(#p77696ba512)" style="fill: #009e73; stroke: #ffffff; stroke-width: 0.8; stroke-linejoin: miter"/>
   </g>
   <g id="patch_13">
    <path d="M 93.155132 355.493125 
L 107.304666 355.493125 
L 107.304666 308.626808 
L 93.155132 308.626808 
z
" clip-path="url(#p77696ba512)" style="fill: #0072b2; stroke: #ffffff; stroke-width: 0.8; stroke-linejoin: miter"/>
   </g>
   <g id="patch_14">
    <path d="M 179.432776 355.493125 
L 193.58231 355.493125 
L 193.58231 301.253116 
L 179.432776 301.253116 
z
" clip-path="url(#p77696ba512)" style="fill: #0072b2; stroke: #ffffff; stroke-width: 0.8; stroke-linejoin: miter"/>
   </g>
   <g id="patch_15">
    <path d="M 265.710421 355.493125 
L 279.859954 355.493125 
L 279.859954 295.257278 
L 265.710421 295.257278 
z
" clip-path="url(#p77696ba512)" style="fill: #0072b2; stroke: #ffffff; stroke-width: 0.8; stroke-linejoin: miter"/>
   </g>
   <g id="patch_16">
    <path d="M 351.988065 355.493125 
L 366.137599 355.493125 
L 366.137599 291.509201 
L 351.988065 291.509201 
z
" clip-path="url(#p77696ba512)" style="fill: #0072b2; stroke: #ffffff; stroke-width: 0.8; stroke-linejoin: miter"/>
   </g>
   <g id="patch_17">
    <path d="M 438.265709 355.493125 
L 452.415243 355.493125 
L 452.415243 287.337147 
L 438.265709 287.337147 
z
" clip-path="url(#p77696ba512)" style="fill: #0072b2; stroke: #ffffff; stroke-width: 0.8; stroke-linejoin: miter"/>
   </g>
   <g id="patch_18">
    <path d="M 524.543353 355.493125 
L 538.692887 355.493125 
L 538.692887 286.162067 
L 524.543353 286.162067 
z
" clip-path="url(#p77696ba512)" style="fill: #0072b2; stroke: #ffffff; stroke-width: 0.8; stroke-linejoin: miter"/>
   </g>
   <g id="patch_19">
    <path d="M 610.820998 355.493125 
L 624.970531 355.493125 
L 624.970531 306.425497 
L 610.820998 306.425497 
z
" clip-path="url(#p77696ba512)" style="fill: #0072b2; stroke: #ffffff; stroke-width: 0.8; stroke-linejoin: miter"/>
   </g>
   <g id="patch_20">
    <path d="M 697.098642 355.493125 
L 711.248175 355.493125 
L 711.248175 314.407337 
L 697.098642 314.407337 
z
" clip-path="url(#p77696ba512)" style="fill: #0072b2; stroke: #ffffff; stroke-width: 0.8; stroke-linejoin: miter"/>
   </g>
   <g id="patch_21">
    <path d="M 107.304666 355.493125 
L 121.4542 355.493125 
L 121.4542 334.59495 
L 107.304666 334.59495 
z
" clip-path="url(#p77696ba512)" style="fill: #d55e00; stroke: #ffffff; stroke-width: 0.8; stroke-linejoin: miter"/>
   </g>
   <g id="patch_22">
    <path d="M 193.58231 355.493125 
L 207.731844 355.493125 
L 207.731844 336.464618 
L 193.58231 336.464618 
z
" clip-path="url(#p77696ba512)" style="fill: #d55e00; stroke: #ffffff; stroke-width: 0.8; stroke-linejoin: miter"/>
   </g>
   <g id="patch_23">
    <path d="M 279.859954 355.493125 
L 294.009488 355.493125 
L 294.009488 336.405503 
L 279.859954 336.405503 
z
" clip-path="url(#p77696ba512)" style="fill: #d55e00; stroke: #ffffff; stroke-width: 0.8; stroke-linejoin: miter"/>
   </g>
   <g id="patch_24">
    <path d="M 366.137599 355.493125 
L 380.287132 355.493125 
L 380.287132 336.503488 
L 366.137599 336.503488 
z
" clip-path="url(#p77696ba512)" style="fill: #d55e00; stroke: #ffffff; stroke-width: 0.8; stroke-linejoin: miter"/>
   </g>
   <g id="patch_25">
    <path d="M 452.415243 355.493125 
L 466.564776 355.493125 
L 466.564776 335.851754 
L 452.415243 335.851754 
z
" clip-path="url(#p77696ba512)" style="fill: #d55e00; stroke: #ffffff; stroke-width: 0.8; stroke-linejoin: miter"/>
   </g>
   <g id="patch_26">
    <path d="M 538.692887 355.493125 
L 552.842421 355.493125 
L 552.842421 331.960309 
L 538.692887 331.960309 
z
" clip-path="url(#p77696ba512)" style="fill: #d55e00; stroke: #ffffff; stroke-width: 0.8; stroke-linejoin: miter"/>
   </g>
   <g id="patch_27">
    <path d="M 624.970531 355.493125 
L 639.120065 355.493125 
L 639.120065 318.522535 
L 624.970531 318.522535 
z
" clip-path="url(#p77696ba512)" style="fill: #d55e00; stroke: #ffffff; stroke-width: 0.8; stroke-linejoin: miter"/>
   </g>
   <g id="patch_28">
    <path d="M 711.248175 355.493125 
L 725.397709 355.493125 
L 725.397709 314.829357 
L 711.248175 314.829357 
z
" clip-path="url(#p77696ba512)" style="fill: #d55e00; stroke: #ffffff; stroke-width: 0.8; stroke-linejoin: miter"/>
   </g>
   <g id="patch_29">
    <path d="M 121.4542 355.493125 
L 135.603733 355.493125 
L 135.603733 186.697117 
L 121.4542 186.697117 
z
" clip-path="url(#p77696ba512)" style="fill: #e69f00; stroke: #ffffff; stroke-width: 0.8; stroke-linejoin: miter"/>
   </g>
   <g id="patch_30">
    <path d="M 207.731844 355.493125 
L 221.881377 355.493125 
L 221.881377 163.471548 
L 207.731844 163.471548 
z
" clip-path="url(#p77696ba512)" style="fill: #e69f00; stroke: #ffffff; stroke-width: 0.8; stroke-linejoin: miter"/>
   </g>
   <g id="patch_31">
    <path d="M 294.009488 355.493125 
L 308.159022 355.493125 
L 308.159022 144.780269 
L 294.009488 144.780269 
z
" clip-path="url(#p77696ba512)" style="fill: #e69f00; stroke: #ffffff; stroke-width: 0.8; stroke-linejoin: miter"/>
   </g>
   <g id="patch_32">
    <path d="M 380.287132 355.493125 
L 394.436666 355.493125 
L 394.436666 133.094168 
L 380.287132 133.094168 
z
" clip-path="url(#p77696ba512)" style="fill: #e69f00; stroke: #ffffff; stroke-width: 0.8; stroke-linejoin: miter"/>
   </g>
   <g id="patch_33">
    <path d="M 466.564776 355.493125 
L 480.71431 355.493125 
L 480.71431 137.401614 
L 466.564776 137.401614 
z
" clip-path="url(#p77696ba512)" style="fill: #e69f00; stroke: #ffffff; stroke-width: 0.8; stroke-linejoin: miter"/>
   </g>
   <g id="patch_34">
    <path d="M 552.842421 355.493125 
L 566.991954 355.493125 
L 566.991954 135.98689 
L 552.842421 135.98689 
z
" clip-path="url(#p77696ba512)" style="fill: #e69f00; stroke: #ffffff; stroke-width: 0.8; stroke-linejoin: miter"/>
   </g>
   <g id="patch_35">
    <path d="M 639.120065 355.493125 
L 653.269599 355.493125 
L 653.269599 201.433508 
L 639.120065 201.433508 
z
" clip-path="url(#p77696ba512)" style="fill: #e69f00; stroke: #ffffff; stroke-width: 0.8; stroke-linejoin: miter"/>
   </g>
   <g id="patch_36">
    <path d="M 725.397709 355.493125 
L 739.547243 355.493125 
L 739.547243 222.257709 
L 725.397709 222.257709 
z
" clip-path="url(#p77696ba512)" style="fill: #e69f00; stroke: #ffffff; stroke-width: 0.8; stroke-linejoin: miter"/>
   </g>
   <g id="patch_37">
    <path d="M 135.603733 355.493125 
L 149.753267 355.493125 
L 149.753267 152.481105 
L 135.603733 152.481105 
z
" clip-path="url(#p77696ba512)" style="fill: #cc79a7; stroke: #ffffff; stroke-width: 0.8; stroke-linejoin: miter"/>
   </g>
   <g id="patch_38">
    <path d="M 221.881377 355.493125 
L 236.030911 355.493125 
L 236.030911 133.351647 
L 221.881377 133.351647 
z
" clip-path="url(#p77696ba512)" style="fill: #cc79a7; stroke: #ffffff; stroke-width: 0.8; stroke-linejoin: miter"/>
   </g>
   <g id="patch_39">
    <path d="M 308.159022 355.493125 
L 322.308555 355.493125 
L 322.308555 106.997221 
L 308.159022 106.997221 
z
" clip-path="url(#p77696ba512)" style="fill: #cc79a7; stroke: #ffffff; stroke-width: 0.8; stroke-linejoin: miter"/>
   </g>
   <g id="patch_40">
    <path d="M 394.436666 355.493125 
L 408.5862 355.493125 
L 408.5862 92.933105 
L 394.436666 92.933105 
z
" clip-path="url(#p77696ba512)" style="fill: #cc79a7; stroke: #ffffff; stroke-width: 0.8; stroke-linejoin: miter"/>
   </g>
   <g id="patch_41">
    <path d="M 480.71431 355.493125 
L 494.863844 355.493125 
L 494.863844 79.815697 
L 480.71431 79.815697 
z
" clip-path="url(#p77696ba512)" style="fill: #cc79a7; stroke: #ffffff; stroke-width: 0.8; stroke-linejoin: miter"/>
   </g>
   <g id="patch_42">
    <path d="M 566.991954 355.493125 
L 581.141488 355.493125 
L 581.141488 76.61346 
L 566.991954 76.61346 
z
" clip-path="url(#p77696ba512)" style="fill: #cc79a7; stroke: #ffffff; stroke-width: 0.8; stroke-linejoin: miter"/>
   </g>
   <g id="patch_43">
    <path d="M 653.269599 355.493125 
L 667.419132 355.493125 
L 667.419132 160.801752 
L 653.269599 160.801752 
z
" clip-path="url(#p77696ba512)" style="fill: #cc79a7; stroke: #ffffff; stroke-width: 0.8; stroke-linejoin: miter"/>
   </g>
   <g id="patch_44">
    <path d="M 739.547243 355.493125 
L 753.696776 355.493125 
L 753.696776 153.397788 
L 739.547243 153.397788 
z
" clip-path="url(#p77696ba512)" style="fill: #cc79a7; stroke: #ffffff; stroke-width: 0.8; stroke-linejoin: miter"/>
   </g>
   <g id="text_17">
    <!-- 1.00 -->
    <g style="fill: #5a5a5a" transform="translate(79.270131 224.038656) scale(0.07 -0.07)">
     <use xlink:href="#HelveticaNeue-31"/>
     <use xlink:href="#HelveticaNeue-2e" transform="translate(55.599991 0)"/>
     <use xlink:href="#HelveticaNeue-30" transform="translate(83.399979 0)"/>
     <use xlink:href="#HelveticaNeue-30" transform="translate(138.999969 0)"/>
    </g>
   </g>
   <g id="text_18">
    <!-- 1.00 -->
    <g style="fill: #5a5a5a" transform="translate(165.547775 223.297932) scale(0.07 -0.07)">
     <use xlink:href="#HelveticaNeue-31"/>
     <use xlink:href="#HelveticaNeue-2e" transform="translate(55.599991 0)"/>
     <use xlink:href="#HelveticaNeue-30" transform="translate(83.399979 0)"/>
     <use xlink:href="#HelveticaNeue-30" transform="translate(138.999969 0)"/>
    </g>
   </g>
   <g id="text_19">
    <!-- 1.00 -->
    <g style="fill: #5a5a5a" transform="translate(251.825419 223.939172) scale(0.07 -0.07)">
     <use xlink:href="#HelveticaNeue-31"/>
     <use xlink:href="#HelveticaNeue-2e" transform="translate(55.599991 0)"/>
     <use xlink:href="#HelveticaNeue-30" transform="translate(83.399979 0)"/>
     <use xlink:href="#HelveticaNeue-30" transform="translate(138.999969 0)"/>
    </g>
   </g>
   <g id="text_20">
    <!-- 1.00 -->
    <g style="fill: #5a5a5a" transform="translate(338.103064 223.851485) scale(0.07 -0.07)">
     <use xlink:href="#HelveticaNeue-31"/>
     <use xlink:href="#HelveticaNeue-2e" transform="translate(55.599991 0)"/>
     <use xlink:href="#HelveticaNeue-30" transform="translate(83.399979 0)"/>
     <use xlink:href="#HelveticaNeue-30" transform="translate(138.999969 0)"/>
    </g>
   </g>
   <g id="text_21">
    <!-- 1.00 -->
    <g style="fill: #5a5a5a" transform="translate(424.380708 223.595783) scale(0.07 -0.07)">
     <use xlink:href="#HelveticaNeue-31"/>
     <use xlink:href="#HelveticaNeue-2e" transform="translate(55.599991 0)"/>
     <use xlink:href="#HelveticaNeue-30" transform="translate(83.399979 0)"/>
     <use xlink:href="#HelveticaNeue-30" transform="translate(138.999969 0)"/>
    </g>
   </g>
   <g id="text_22">
    <!-- 1.00 -->
    <g style="fill: #5a5a5a" transform="translate(510.658352 221.623045) scale(0.07 -0.07)">
     <use xlink:href="#HelveticaNeue-31"/>
     <use xlink:href="#HelveticaNeue-2e" transform="translate(55.599991 0)"/>
     <use xlink:href="#HelveticaNeue-30" transform="translate(83.399979 0)"/>
     <use xlink:href="#HelveticaNeue-30" transform="translate(138.999969 0)"/>
    </g>
   </g>
   <g id="text_23">
    <!-- 1.00 -->
    <g style="fill: #5a5a5a" transform="translate(596.935996 221.626119) scale(0.07 -0.07)">
     <use xlink:href="#HelveticaNeue-31"/>
     <use xlink:href="#HelveticaNeue-2e" transform="translate(55.599991 0)"/>
     <use xlink:href="#HelveticaNeue-30" transform="translate(83.399979 0)"/>
     <use xlink:href="#HelveticaNeue-30" transform="translate(138.999969 0)"/>
    </g>
   </g>
   <g id="text_24">
    <!-- 1.00 -->
    <g style="fill: #5a5a5a" transform="translate(683.213641 223.025188) scale(0.07 -0.07)">
     <use xlink:href="#HelveticaNeue-31"/>
     <use xlink:href="#HelveticaNeue-2e" transform="translate(55.599991 0)"/>
     <use xlink:href="#HelveticaNeue-30" transform="translate(83.399979 0)"/>
     <use xlink:href="#HelveticaNeue-30" transform="translate(138.999969 0)"/>
    </g>
   </g>
   <g id="text_25">
    <!-- 0.37 -->
    <g style="fill: #5a5a5a" transform="translate(93.419665 304.134941) scale(0.07 -0.07)">
     <defs>
      <path id="HelveticaNeue-37" d="M 3258 3994 
L 3258 4461 
L 320 4461 
L 320 3949 
L 2701 3949 
Q 2342 3571 2032 3123 
Q 1722 2675 1485 2172 
Q 1248 1670 1097 1123 
Q 947 576 909 0 
L 1517 0 
Q 1549 531 1696 1094 
Q 1843 1658 2076 2189 
Q 2310 2720 2611 3187 
Q 2912 3654 3258 3994 
z
" transform="scale(0.015625)"/>
     </defs>
     <use xlink:href="#HelveticaNeue-30"/>
     <use xlink:href="#HelveticaNeue-2e" transform="translate(55.599991 0)"/>
     <use xlink:href="#HelveticaNeue-33" transform="translate(83.399979 0)"/>
     <use xlink:href="#HelveticaNeue-37" transform="translate(138.999969 0)"/>
    </g>
   </g>
   <g id="text_26">
    <!-- 0.43 -->
    <g style="fill: #5a5a5a" transform="translate(179.697309 296.63714) scale(0.07 -0.07)">
     <use xlink:href="#HelveticaNeue-30"/>
     <use xlink:href="#HelveticaNeue-2e" transform="translate(55.599991 0)"/>
     <use xlink:href="#HelveticaNeue-34" transform="translate(83.399979 0)"/>
     <use xlink:href="#HelveticaNeue-33" transform="translate(138.999969 0)"/>
    </g>
   </g>
   <g id="text_27">
    <!-- 0.48 -->
    <g style="fill: #5a5a5a" transform="translate(265.974953 290.480143) scale(0.07 -0.07)">
     <use xlink:href="#HelveticaNeue-30"/>
     <use xlink:href="#HelveticaNeue-2e" transform="translate(55.599991 0)"/>
     <use xlink:href="#HelveticaNeue-34" transform="translate(83.399979 0)"/>
     <use xlink:href="#HelveticaNeue-38" transform="translate(138.999969 0)"/>
    </g>
   </g>
   <g id="text_28">
    <!-- 0.51 -->
    <g style="fill: #5a5a5a" transform="translate(352.252597 286.840071) scale(0.07 -0.07)">
     <use xlink:href="#HelveticaNeue-30"/>
     <use xlink:href="#HelveticaNeue-2e" transform="translate(55.599991 0)"/>
     <use xlink:href="#HelveticaNeue-35" transform="translate(83.399979 0)"/>
     <use xlink:href="#HelveticaNeue-31" transform="translate(138.999969 0)"/>
    </g>
   </g>
   <g id="text_29">
    <!-- 0.54 -->
    <g style="fill: #5a5a5a" transform="translate(438.530242 282.43552) scale(0.07 -0.07)">
     <use xlink:href="#HelveticaNeue-30"/>
     <use xlink:href="#HelveticaNeue-2e" transform="translate(55.599991 0)"/>
     <use xlink:href="#HelveticaNeue-35" transform="translate(83.399979 0)"/>
     <use xlink:href="#HelveticaNeue-34" transform="translate(138.999969 0)"/>
    </g>
   </g>
   <g id="text_30">
    <!-- 0.55 -->
    <g style="fill: #5a5a5a" transform="translate(524.807886 281.332369) scale(0.07 -0.07)">
     <use xlink:href="#HelveticaNeue-30"/>
     <use xlink:href="#HelveticaNeue-2e" transform="translate(55.599991 0)"/>
     <use xlink:href="#HelveticaNeue-35" transform="translate(83.399979 0)"/>
     <use xlink:href="#HelveticaNeue-35" transform="translate(138.999969 0)"/>
    </g>
   </g>
   <g id="text_31">
    <!-- 0.39 -->
    <g style="fill: #5a5a5a" transform="translate(611.08553 301.96543) scale(0.07 -0.07)">
     <defs>
      <path id="HelveticaNeue-39" d="M 858 1094 
L 314 1094 
Q 365 506 742 218 
Q 1120 -70 1690 -70 
Q 2515 -70 2889 560 
Q 3264 1190 3264 2368 
Q 3264 3014 3139 3433 
Q 3014 3853 2803 4096 
Q 2592 4339 2310 4438 
Q 2029 4538 1709 4538 
Q 1382 4538 1107 4429 
Q 832 4320 633 4125 
Q 435 3930 326 3658 
Q 218 3386 218 3059 
Q 218 2726 310 2444 
Q 403 2163 585 1964 
Q 768 1766 1037 1654 
Q 1306 1542 1651 1542 
Q 1984 1542 2265 1712 
Q 2547 1882 2701 2170 
L 2714 2157 
Q 2688 1267 2438 835 
Q 2189 403 1690 403 
Q 1363 403 1126 582 
Q 890 762 858 1094 
z
M 2618 3021 
Q 2618 2822 2554 2640 
Q 2490 2458 2368 2320 
Q 2246 2182 2073 2102 
Q 1901 2022 1690 2022 
Q 1491 2022 1328 2102 
Q 1165 2182 1046 2316 
Q 928 2451 861 2624 
Q 794 2797 794 2982 
Q 794 3194 842 3386 
Q 890 3578 995 3728 
Q 1101 3878 1270 3968 
Q 1440 4058 1683 4058 
Q 1914 4058 2086 3974 
Q 2259 3891 2377 3747 
Q 2496 3603 2557 3417 
Q 2618 3232 2618 3021 
z
" transform="scale(0.015625)"/>
     </defs>
     <use xlink:href="#HelveticaNeue-30"/>
     <use xlink:href="#HelveticaNeue-2e" transform="translate(55.599991 0)"/>
     <use xlink:href="#HelveticaNeue-33" transform="translate(83.399979 0)"/>
     <use xlink:href="#HelveticaNeue-39" transform="translate(138.999969 0)"/>
    </g>
   </g>
   <g id="text_32">
    <!-- 0.32 -->
    <g style="fill: #5a5a5a" transform="translate(697.363174 309.660711) scale(0.07 -0.07)">
     <use xlink:href="#HelveticaNeue-30"/>
     <use xlink:href="#HelveticaNeue-2e" transform="translate(55.599991 0)"/>
     <use xlink:href="#HelveticaNeue-33" transform="translate(83.399979 0)"/>
     <use xlink:href="#HelveticaNeue-32" transform="translate(138.999969 0)"/>
    </g>
   </g>
   <g id="text_33">
    <!-- 0.17 -->
    <g style="fill: #5a5a5a" transform="translate(107.569198 330.112484) scale(0.07 -0.07)">
     <use xlink:href="#HelveticaNeue-30"/>
     <use xlink:href="#HelveticaNeue-2e" transform="translate(55.599991 0)"/>
     <use xlink:href="#HelveticaNeue-31" transform="translate(83.399979 0)"/>
     <use xlink:href="#HelveticaNeue-37" transform="translate(138.999969 0)"/>
    </g>
   </g>
   <g id="text_34">
    <!-- 0.15 -->
    <g style="fill: #5a5a5a" transform="translate(193.846843 331.97729) scale(0.07 -0.07)">
     <use xlink:href="#HelveticaNeue-30"/>
     <use xlink:href="#HelveticaNeue-2e" transform="translate(55.599991 0)"/>
     <use xlink:href="#HelveticaNeue-31" transform="translate(83.399979 0)"/>
     <use xlink:href="#HelveticaNeue-35" transform="translate(138.999969 0)"/>
    </g>
   </g>
   <g id="text_35">
    <!-- 0.15 -->
    <g style="fill: #5a5a5a" transform="translate(280.124487 331.89438) scale(0.07 -0.07)">
     <use xlink:href="#HelveticaNeue-30"/>
     <use xlink:href="#HelveticaNeue-2e" transform="translate(55.599991 0)"/>
     <use xlink:href="#HelveticaNeue-31" transform="translate(83.399979 0)"/>
     <use xlink:href="#HelveticaNeue-35" transform="translate(138.999969 0)"/>
    </g>
   </g>
   <g id="text_36">
    <!-- 0.15 -->
    <g style="fill: #5a5a5a" transform="translate(366.402131 332.089022) scale(0.07 -0.07)">
     <use xlink:href="#HelveticaNeue-30"/>
     <use xlink:href="#HelveticaNeue-2e" transform="translate(55.599991 0)"/>
     <use xlink:href="#HelveticaNeue-31" transform="translate(83.399979 0)"/>
     <use xlink:href="#HelveticaNeue-35" transform="translate(138.999969 0)"/>
    </g>
   </g>
   <g id="text_37">
    <!-- 0.16 -->
    <g style="fill: #5a5a5a" transform="translate(452.679775 331.31619) scale(0.07 -0.07)">
     <use xlink:href="#HelveticaNeue-30"/>
     <use xlink:href="#HelveticaNeue-2e" transform="translate(55.599991 0)"/>
     <use xlink:href="#HelveticaNeue-31" transform="translate(83.399979 0)"/>
     <use xlink:href="#HelveticaNeue-36" transform="translate(138.999969 0)"/>
    </g>
   </g>
   <g id="text_38">
    <!-- 0.19 -->
    <g style="fill: #5a5a5a" transform="translate(538.957419 326.332796) scale(0.07 -0.07)">
     <use xlink:href="#HelveticaNeue-30"/>
     <use xlink:href="#HelveticaNeue-2e" transform="translate(55.599991 0)"/>
     <use xlink:href="#HelveticaNeue-31" transform="translate(83.399979 0)"/>
     <use xlink:href="#HelveticaNeue-39" transform="translate(138.999969 0)"/>
    </g>
   </g>
   <g id="text_39">
    <!-- 0.29 -->
    <g style="fill: #5a5a5a" transform="translate(625.235064 313.099365) scale(0.07 -0.07)">
     <use xlink:href="#HelveticaNeue-30"/>
     <use xlink:href="#HelveticaNeue-2e" transform="translate(55.599991 0)"/>
     <use xlink:href="#HelveticaNeue-32" transform="translate(83.399979 0)"/>
     <use xlink:href="#HelveticaNeue-39" transform="translate(138.999969 0)"/>
    </g>
   </g>
   <g id="text_40">
    <!-- 0.32 -->
    <g style="fill: #5a5a5a" transform="translate(711.512708 309.944187) scale(0.07 -0.07)">
     <use xlink:href="#HelveticaNeue-30"/>
     <use xlink:href="#HelveticaNeue-2e" transform="translate(55.599991 0)"/>
     <use xlink:href="#HelveticaNeue-33" transform="translate(83.399979 0)"/>
     <use xlink:href="#HelveticaNeue-32" transform="translate(138.999969 0)"/>
    </g>
   </g>
   <g id="text_41">
    <!-- 1.33 -->
    <g style="fill: #5a5a5a" transform="translate(121.718732 181.049204) scale(0.07 -0.07)">
     <use xlink:href="#HelveticaNeue-31"/>
     <use xlink:href="#HelveticaNeue-2e" transform="translate(55.599991 0)"/>
     <use xlink:href="#HelveticaNeue-33" transform="translate(83.399979 0)"/>
     <use xlink:href="#HelveticaNeue-33" transform="translate(138.999969 0)"/>
    </g>
   </g>
   <g id="text_42">
    <!-- 1.52 -->
    <g style="fill: #5a5a5a" transform="translate(207.996376 157.783912) scale(0.07 -0.07)">
     <use xlink:href="#HelveticaNeue-31"/>
     <use xlink:href="#HelveticaNeue-2e" transform="translate(55.599991 0)"/>
     <use xlink:href="#HelveticaNeue-35" transform="translate(83.399979 0)"/>
     <use xlink:href="#HelveticaNeue-32" transform="translate(138.999969 0)"/>
    </g>
   </g>
   <g id="text_43">
    <!-- 1.66 -->
    <g style="fill: #5a5a5a" transform="translate(294.27402 139.125214) scale(0.07 -0.07)">
     <use xlink:href="#HelveticaNeue-31"/>
     <use xlink:href="#HelveticaNeue-2e" transform="translate(55.599991 0)"/>
     <use xlink:href="#HelveticaNeue-36" transform="translate(83.399979 0)"/>
     <use xlink:href="#HelveticaNeue-36" transform="translate(138.999969 0)"/>
    </g>
   </g>
   <g id="text_44">
    <!-- 1.76 -->
    <g style="fill: #5a5a5a" transform="translate(380.551665 127.255995) scale(0.07 -0.07)">
     <use xlink:href="#HelveticaNeue-31"/>
     <use xlink:href="#HelveticaNeue-2e" transform="translate(55.599991 0)"/>
     <use xlink:href="#HelveticaNeue-37" transform="translate(83.399979 0)"/>
     <use xlink:href="#HelveticaNeue-36" transform="translate(138.999969 0)"/>
    </g>
   </g>
   <g id="text_45">
    <!-- 1.72 -->
    <g style="fill: #5a5a5a" transform="translate(466.829309 131.747564) scale(0.07 -0.07)">
     <use xlink:href="#HelveticaNeue-31"/>
     <use xlink:href="#HelveticaNeue-2e" transform="translate(55.599991 0)"/>
     <use xlink:href="#HelveticaNeue-37" transform="translate(83.399979 0)"/>
     <use xlink:href="#HelveticaNeue-32" transform="translate(138.999969 0)"/>
    </g>
   </g>
   <g id="text_46">
    <!-- 1.73 -->
    <g style="fill: #5a5a5a" transform="translate(553.106953 130.841016) scale(0.07 -0.07)">
     <use xlink:href="#HelveticaNeue-31"/>
     <use xlink:href="#HelveticaNeue-2e" transform="translate(55.599991 0)"/>
     <use xlink:href="#HelveticaNeue-37" transform="translate(83.399979 0)"/>
     <use xlink:href="#HelveticaNeue-33" transform="translate(138.999969 0)"/>
    </g>
   </g>
   <g id="text_47">
    <!-- 1.22 -->
    <g style="fill: #5a5a5a" transform="translate(639.384597 196.239735) scale(0.07 -0.07)">
     <use xlink:href="#HelveticaNeue-31"/>
     <use xlink:href="#HelveticaNeue-2e" transform="translate(55.599991 0)"/>
     <use xlink:href="#HelveticaNeue-32" transform="translate(83.399979 0)"/>
     <use xlink:href="#HelveticaNeue-32" transform="translate(138.999969 0)"/>
    </g>
   </g>
   <g id="text_48">
    <!-- 1.05 -->
    <g style="fill: #5a5a5a" transform="translate(725.662242 215.937753) scale(0.07 -0.07)">
     <use xlink:href="#HelveticaNeue-31"/>
     <use xlink:href="#HelveticaNeue-2e" transform="translate(55.599991 0)"/>
     <use xlink:href="#HelveticaNeue-30" transform="translate(83.399979 0)"/>
     <use xlink:href="#HelveticaNeue-35" transform="translate(138.999969 0)"/>
    </g>
   </g>
   <g id="text_49">
    <!-- 1.60 -->
    <g style="fill: #5a5a5a" transform="translate(135.868266 146.024531) scale(0.07 -0.07)">
     <use xlink:href="#HelveticaNeue-31"/>
     <use xlink:href="#HelveticaNeue-2e" transform="translate(55.599991 0)"/>
     <use xlink:href="#HelveticaNeue-36" transform="translate(83.399979 0)"/>
     <use xlink:href="#HelveticaNeue-30" transform="translate(138.999969 0)"/>
    </g>
   </g>
   <g id="text_50">
    <!-- 1.75 -->
    <g style="fill: #5a5a5a" transform="translate(222.14591 127.762362) scale(0.07 -0.07)">
     <use xlink:href="#HelveticaNeue-31"/>
     <use xlink:href="#HelveticaNeue-2e" transform="translate(55.599991 0)"/>
     <use xlink:href="#HelveticaNeue-37" transform="translate(83.399979 0)"/>
     <use xlink:href="#HelveticaNeue-35" transform="translate(138.999969 0)"/>
    </g>
   </g>
   <g id="text_51">
    <!-- 1.96 -->
    <g style="fill: #5a5a5a" transform="translate(308.423554 101.463213) scale(0.07 -0.07)">
     <use xlink:href="#HelveticaNeue-31"/>
     <use xlink:href="#HelveticaNeue-2e" transform="translate(55.599991 0)"/>
     <use xlink:href="#HelveticaNeue-39" transform="translate(83.399979 0)"/>
     <use xlink:href="#HelveticaNeue-36" transform="translate(138.999969 0)"/>
    </g>
   </g>
   <g id="text_52">
    <!-- 2.07 -->
    <g style="fill: #5a5a5a" transform="translate(394.701198 88.18604) scale(0.07 -0.07)">
     <use xlink:href="#HelveticaNeue-32"/>
     <use xlink:href="#HelveticaNeue-2e" transform="translate(55.599991 0)"/>
     <use xlink:href="#HelveticaNeue-30" transform="translate(83.399979 0)"/>
     <use xlink:href="#HelveticaNeue-37" transform="translate(138.999969 0)"/>
    </g>
   </g>
   <g id="text_53">
    <!-- 2.18 -->
    <g style="fill: #5a5a5a" transform="translate(480.978843 73.87906) scale(0.07 -0.07)">
     <use xlink:href="#HelveticaNeue-32"/>
     <use xlink:href="#HelveticaNeue-2e" transform="translate(55.599991 0)"/>
     <use xlink:href="#HelveticaNeue-31" transform="translate(83.399979 0)"/>
     <use xlink:href="#HelveticaNeue-38" transform="translate(138.999969 0)"/>
    </g>
   </g>
   <g id="text_54">
    <!-- 2.20 -->
    <g style="fill: #5a5a5a" transform="translate(567.256487 71.751837) scale(0.07 -0.07)">
     <use xlink:href="#HelveticaNeue-32"/>
     <use xlink:href="#HelveticaNeue-2e" transform="translate(55.599991 0)"/>
     <use xlink:href="#HelveticaNeue-32" transform="translate(83.399979 0)"/>
     <use xlink:href="#HelveticaNeue-30" transform="translate(138.999969 0)"/>
    </g>
   </g>
   <g id="text_55">
    <!-- 1.54 -->
    <g style="fill: #5a5a5a" transform="translate(653.534131 154.028631) scale(0.07 -0.07)">
     <use xlink:href="#HelveticaNeue-31"/>
     <use xlink:href="#HelveticaNeue-2e" transform="translate(55.599991 0)"/>
     <use xlink:href="#HelveticaNeue-35" transform="translate(83.399979 0)"/>
     <use xlink:href="#HelveticaNeue-34" transform="translate(138.999969 0)"/>
    </g>
   </g>
   <g id="text_56">
    <!-- 1.60 -->
    <g style="fill: #5a5a5a" transform="translate(739.811775 148.786083) scale(0.07 -0.07)">
     <use xlink:href="#HelveticaNeue-31"/>
     <use xlink:href="#HelveticaNeue-2e" transform="translate(55.599991 0)"/>
     <use xlink:href="#HelveticaNeue-36" transform="translate(83.399979 0)"/>
     <use xlink:href="#HelveticaNeue-30" transform="translate(138.999969 0)"/>
    </g>
   </g>
   <g id="text_57">
    <!-- Bit Reversal (f32): Runtime relative to COBRA -->
    <g transform="translate(274.647125 17.433125) scale(0.14 -0.14)">
     <defs>
      <path id="HelveticaNeue-3a" d="M 1242 2598 
L 1242 3309 
L 531 3309 
L 531 2598 
L 1242 2598 
z
M 531 710 
L 531 0 
L 1242 0 
L 1242 710 
L 531 710 
z
" transform="scale(0.015625)"/>
     </defs>
     <use xlink:href="#HelveticaNeue-42"/>
     <use xlink:href="#HelveticaNeue-69" transform="translate(68.499985 0)"/>
     <use xlink:href="#HelveticaNeue-74" transform="translate(90.699982 0)"/>
     <use xlink:href="#HelveticaNeue-20" transform="translate(122.199966 0)"/>
     <use xlink:href="#HelveticaNeue-52" transform="translate(149.999954 0)"/>
     <use xlink:href="#HelveticaNeue-65" transform="translate(218.499939 0)"/>
     <use xlink:href="#HelveticaNeue-76" transform="translate(272.199936 0)"/>
     <use xlink:href="#HelveticaNeue-65" transform="translate(322.199921 0)"/>
     <use xlink:href="#HelveticaNeue-72" transform="translate(375.899918 0)"/>
     <use xlink:href="#HelveticaNeue-73" transform="translate(409.199905 0)"/>
     <use xlink:href="#HelveticaNeue-61" transform="translate(459.19989 0)"/>
     <use xlink:href="#HelveticaNeue-6c" transform="translate(512.899887 0)"/>
     <use xlink:href="#HelveticaNeue-20" transform="translate(535.099884 0)"/>
     <use xlink:href="#HelveticaNeue-28" transform="translate(562.899872 0)"/>
     <use xlink:href="#HelveticaNeue-66" transform="translate(588.799866 0)"/>
     <use xlink:href="#HelveticaNeue-33" transform="translate(618.399857 0)"/>
     <use xlink:href="#HelveticaNeue-32" transform="translate(673.999847 0)"/>
     <use xlink:href="#HelveticaNeue-29" transform="translate(729.599838 0)"/>
     <use xlink:href="#HelveticaNeue-3a" transform="translate(755.499832 0)"/>
     <use xlink:href="#HelveticaNeue-20" transform="translate(783.29982 0)"/>
     <use xlink:href="#HelveticaNeue-52" transform="translate(811.099808 0)"/>
     <use xlink:href="#HelveticaNeue-75" transform="translate(879.599792 0)"/>
     <use xlink:href="#HelveticaNeue-6e" transform="translate(935.199783 0)"/>
     <use xlink:href="#HelveticaNeue-74" transform="translate(990.799774 0)"/>
     <use xlink:href="#HelveticaNeue-69" transform="translate(1022.299759 0)"/>
     <use xlink:href="#HelveticaNeue-6d" transform="translate(1044.499756 0)"/>
     <use xlink:href="#HelveticaNeue-65" transform="translate(1129.799744 0)"/>
     <use xlink:href="#HelveticaNeue-20" transform="translate(1183.499741 0)"/>
     <use xlink:href="#HelveticaNeue-72" transform="translate(1211.299728 0)"/>
     <use xlink:href="#HelveticaNeue-65" transform="translate(1242.849716 0)"/>
     <use xlink:href="#HelveticaNeue-6c" transform="translate(1296.549713 0)"/>
     <use xlink:href="#HelveticaNeue-61" transform="translate(1318.74971 0)"/>
     <use xlink:href="#HelveticaNeue-74" transform="translate(1372.449707 0)"/>
     <use xlink:href="#HelveticaNeue-69" transform="translate(1403.949692 0)"/>
     <use xlink:href="#HelveticaNeue-76" transform="translate(1426.149689 0)"/>
     <use xlink:href="#HelveticaNeue-65" transform="translate(1476.149673 0)"/>
     <use xlink:href="#HelveticaNeue-20" transform="translate(1529.84967 0)"/>
     <use xlink:href="#HelveticaNeue-74" transform="translate(1557.649658 0)"/>
     <use xlink:href="#HelveticaNeue-6f" transform="translate(1589.149643 0)"/>
     <use xlink:href="#HelveticaNeue-20" transform="translate(1646.549637 0)"/>
     <use xlink:href="#HelveticaNeue-43" transform="translate(1674.349625 0)"/>
     <use xlink:href="#HelveticaNeue-4f" transform="translate(1746.549606 0)"/>
     <use xlink:href="#HelveticaNeue-42" transform="translate(1822.549591 0)"/>
     <use xlink:href="#HelveticaNeue-52" transform="translate(1891.049576 0)"/>
     <use xlink:href="#HelveticaNeue-41" transform="translate(1959.549561 0)"/>
    </g>
   </g>
   <g id="LineCollection_1">
    <path d="M 86.080365 229.022185 
L 86.080365 228.417875 
" clip-path="url(#p77696ba512)" style="fill: none; stroke: #2f2f2f; stroke-width: 0.9"/>
    <path d="M 172.35801 228.909695 
L 172.35801 227.677151 
" clip-path="url(#p77696ba512)" style="fill: none; stroke: #2f2f2f; stroke-width: 0.9"/>
    <path d="M 258.635654 229.020003 
L 258.635654 228.318391 
" clip-path="url(#p77696ba512)" style="fill: none; stroke: #2f2f2f; stroke-width: 0.9"/>
    <path d="M 344.913298 228.942938 
L 344.913298 228.230704 
" clip-path="url(#p77696ba512)" style="fill: none; stroke: #2f2f2f; stroke-width: 0.9"/>
    <path d="M 431.190942 228.950761 
L 431.190942 227.975002 
" clip-path="url(#p77696ba512)" style="fill: none; stroke: #2f2f2f; stroke-width: 0.9"/>
    <path d="M 517.468587 228.950922 
L 517.468587 226.002264 
" clip-path="url(#p77696ba512)" style="fill: none; stroke: #2f2f2f; stroke-width: 0.9"/>
    <path d="M 603.746231 229.314526 
L 603.746231 226.005338 
" clip-path="url(#p77696ba512)" style="fill: none; stroke: #2f2f2f; stroke-width: 0.9"/>
    <path d="M 690.023875 229.096186 
L 690.023875 227.404406 
" clip-path="url(#p77696ba512)" style="fill: none; stroke: #2f2f2f; stroke-width: 0.9"/>
   </g>
   <g id="line2d_22">
    <defs>
     <path id="m7d727e7af7" d="M 2 0 
L -2 -0 
" style="stroke: #2f2f2f"/>
    </defs>
    <g clip-path="url(#p77696ba512)">
     <use xlink:href="#m7d727e7af7" x="86.080365" y="229.022185" style="fill: #1f77b4; stroke: #2f2f2f"/>
     <use xlink:href="#m7d727e7af7" x="172.35801" y="228.909695" style="fill: #1f77b4; stroke: #2f2f2f"/>
     <use xlink:href="#m7d727e7af7" x="258.635654" y="229.020003" style="fill: #1f77b4; stroke: #2f2f2f"/>
     <use xlink:href="#m7d727e7af7" x="344.913298" y="228.942938" style="fill: #1f77b4; stroke: #2f2f2f"/>
     <use xlink:href="#m7d727e7af7" x="431.190942" y="228.950761" style="fill: #1f77b4; stroke: #2f2f2f"/>
     <use xlink:href="#m7d727e7af7" x="517.468587" y="228.950922" style="fill: #1f77b4; stroke: #2f2f2f"/>
     <use xlink:href="#m7d727e7af7" x="603.746231" y="229.314526" style="fill: #1f77b4; stroke: #2f2f2f"/>
     <use xlink:href="#m7d727e7af7" x="690.023875" y="229.096186" style="fill: #1f77b4; stroke: #2f2f2f"/>
    </g>
   </g>
   <g id="line2d_23">
    <g clip-path="url(#p77696ba512)">
     <use xlink:href="#m7d727e7af7" x="86.080365" y="228.417875" style="fill: #1f77b4; stroke: #2f2f2f"/>
     <use xlink:href="#m7d727e7af7" x="172.35801" y="227.677151" style="fill: #1f77b4; stroke: #2f2f2f"/>
     <use xlink:href="#m7d727e7af7" x="258.635654" y="228.318391" style="fill: #1f77b4; stroke: #2f2f2f"/>
     <use xlink:href="#m7d727e7af7" x="344.913298" y="228.230704" style="fill: #1f77b4; stroke: #2f2f2f"/>
     <use xlink:href="#m7d727e7af7" x="431.190942" y="227.975002" style="fill: #1f77b4; stroke: #2f2f2f"/>
     <use xlink:href="#m7d727e7af7" x="517.468587" y="226.002264" style="fill: #1f77b4; stroke: #2f2f2f"/>
     <use xlink:href="#m7d727e7af7" x="603.746231" y="226.005338" style="fill: #1f77b4; stroke: #2f2f2f"/>
     <use xlink:href="#m7d727e7af7" x="690.023875" y="227.404406" style="fill: #1f77b4; stroke: #2f2f2f"/>
    </g>
   </g>
   <g id="LineCollection_2">
    <path d="M 100.229899 309.350626 
L 100.229899 308.51416 
" clip-path="url(#p77696ba512)" style="fill: none; stroke: #2f2f2f; stroke-width: 0.9"/>
    <path d="M 186.507543 301.273058 
L 186.507543 301.016359 
" clip-path="url(#p77696ba512)" style="fill: none; stroke: #2f2f2f; stroke-width: 0.9"/>
    <path d="M 272.785188 295.306406 
L 272.785188 294.859362 
" clip-path="url(#p77696ba512)" style="fill: none; stroke: #2f2f2f; stroke-width: 0.9"/>
    <path d="M 359.062832 291.56438 
L 359.062832 291.21929 
" clip-path="url(#p77696ba512)" style="fill: none; stroke: #2f2f2f; stroke-width: 0.9"/>
    <path d="M 445.340476 287.811247 
L 445.340476 286.814739 
" clip-path="url(#p77696ba512)" style="fill: none; stroke: #2f2f2f; stroke-width: 0.9"/>
    <path d="M 531.61812 286.401272 
L 531.61812 285.711588 
" clip-path="url(#p77696ba512)" style="fill: none; stroke: #2f2f2f; stroke-width: 0.9"/>
    <path d="M 617.895764 306.632037 
L 617.895764 306.344649 
" clip-path="url(#p77696ba512)" style="fill: none; stroke: #2f2f2f; stroke-width: 0.9"/>
    <path d="M 704.173409 314.492867 
L 704.173409 314.039929 
" clip-path="url(#p77696ba512)" style="fill: none; stroke: #2f2f2f; stroke-width: 0.9"/>
   </g>
   <g id="line2d_24">
    <g clip-path="url(#p77696ba512)">
     <use xlink:href="#m7d727e7af7" x="100.229899" y="309.350626" style="fill: #1f77b4; stroke: #2f2f2f"/>
     <use xlink:href="#m7d727e7af7" x="186.507543" y="301.273058" style="fill: #1f77b4; stroke: #2f2f2f"/>
     <use xlink:href="#m7d727e7af7" x="272.785188" y="295.306406" style="fill: #1f77b4; stroke: #2f2f2f"/>
     <use xlink:href="#m7d727e7af7" x="359.062832" y="291.56438" style="fill: #1f77b4; stroke: #2f2f2f"/>
     <use xlink:href="#m7d727e7af7" x="445.340476" y="287.811247" style="fill: #1f77b4; stroke: #2f2f2f"/>
     <use xlink:href="#m7d727e7af7" x="531.61812" y="286.401272" style="fill: #1f77b4; stroke: #2f2f2f"/>
     <use xlink:href="#m7d727e7af7" x="617.895764" y="306.632037" style="fill: #1f77b4; stroke: #2f2f2f"/>
     <use xlink:href="#m7d727e7af7" x="704.173409" y="314.492867" style="fill: #1f77b4; stroke: #2f2f2f"/>
    </g>
   </g>
   <g id="line2d_25">
    <g clip-path="url(#p77696ba512)">
     <use xlink:href="#m7d727e7af7" x="100.229899" y="308.51416" style="fill: #1f77b4; stroke: #2f2f2f"/>
     <use xlink:href="#m7d727e7af7" x="186.507543" y="301.016359" style="fill: #1f77b4; stroke: #2f2f2f"/>
     <use xlink:href="#m7d727e7af7" x="272.785188" y="294.859362" style="fill: #1f77b4; stroke: #2f2f2f"/>
     <use xlink:href="#m7d727e7af7" x="359.062832" y="291.21929" style="fill: #1f77b4; stroke: #2f2f2f"/>
     <use xlink:href="#m7d727e7af7" x="445.340476" y="286.814739" style="fill: #1f77b4; stroke: #2f2f2f"/>
     <use xlink:href="#m7d727e7af7" x="531.61812" y="285.711588" style="fill: #1f77b4; stroke: #2f2f2f"/>
     <use xlink:href="#m7d727e7af7" x="617.895764" y="306.344649" style="fill: #1f77b4; stroke: #2f2f2f"/>
     <use xlink:href="#m7d727e7af7" x="704.173409" y="314.039929" style="fill: #1f77b4; stroke: #2f2f2f"/>
    </g>
   </g>
   <g id="LineCollection_3">
    <path d="M 114.379433 334.61646 
L 114.379433 334.491702 
" clip-path="url(#p77696ba512)" style="fill: none; stroke: #2f2f2f; stroke-width: 0.9"/>
    <path d="M 200.657077 336.50558 
L 200.657077 336.356509 
" clip-path="url(#p77696ba512)" style="fill: none; stroke: #2f2f2f; stroke-width: 0.9"/>
    <path d="M 286.934721 336.461364 
L 286.934721 336.273599 
" clip-path="url(#p77696ba512)" style="fill: none; stroke: #2f2f2f; stroke-width: 0.9"/>
    <path d="M 373.212365 336.569305 
L 373.212365 336.468241 
" clip-path="url(#p77696ba512)" style="fill: none; stroke: #2f2f2f; stroke-width: 0.9"/>
    <path d="M 459.49001 335.881777 
L 459.49001 335.695409 
" clip-path="url(#p77696ba512)" style="fill: none; stroke: #2f2f2f; stroke-width: 0.9"/>
    <path d="M 545.767654 332.013942 
L 545.767654 330.712015 
" clip-path="url(#p77696ba512)" style="fill: none; stroke: #2f2f2f; stroke-width: 0.9"/>
    <path d="M 632.045298 318.643571 
L 632.045298 317.478584 
" clip-path="url(#p77696ba512)" style="fill: none; stroke: #2f2f2f; stroke-width: 0.9"/>
    <path d="M 718.322942 314.89024 
L 718.322942 314.323406 
" clip-path="url(#p77696ba512)" style="fill: none; stroke: #2f2f2f; stroke-width: 0.9"/>
   </g>
   <g id="line2d_26">
    <g clip-path="url(#p77696ba512)">
     <use xlink:href="#m7d727e7af7" x="114.379433" y="334.61646" style="fill: #1f77b4; stroke: #2f2f2f"/>
     <use xlink:href="#m7d727e7af7" x="200.657077" y="336.50558" style="fill: #1f77b4; stroke: #2f2f2f"/>
     <use xlink:href="#m7d727e7af7" x="286.934721" y="336.461364" style="fill: #1f77b4; stroke: #2f2f2f"/>
     <use xlink:href="#m7d727e7af7" x="373.212365" y="336.569305" style="fill: #1f77b4; stroke: #2f2f2f"/>
     <use xlink:href="#m7d727e7af7" x="459.49001" y="335.881777" style="fill: #1f77b4; stroke: #2f2f2f"/>
     <use xlink:href="#m7d727e7af7" x="545.767654" y="332.013942" style="fill: #1f77b4; stroke: #2f2f2f"/>
     <use xlink:href="#m7d727e7af7" x="632.045298" y="318.643571" style="fill: #1f77b4; stroke: #2f2f2f"/>
     <use xlink:href="#m7d727e7af7" x="718.322942" y="314.89024" style="fill: #1f77b4; stroke: #2f2f2f"/>
    </g>
   </g>
   <g id="line2d_27">
    <g clip-path="url(#p77696ba512)">
     <use xlink:href="#m7d727e7af7" x="114.379433" y="334.491702" style="fill: #1f77b4; stroke: #2f2f2f"/>
     <use xlink:href="#m7d727e7af7" x="200.657077" y="336.356509" style="fill: #1f77b4; stroke: #2f2f2f"/>
     <use xlink:href="#m7d727e7af7" x="286.934721" y="336.273599" style="fill: #1f77b4; stroke: #2f2f2f"/>
     <use xlink:href="#m7d727e7af7" x="373.212365" y="336.468241" style="fill: #1f77b4; stroke: #2f2f2f"/>
     <use xlink:href="#m7d727e7af7" x="459.49001" y="335.695409" style="fill: #1f77b4; stroke: #2f2f2f"/>
     <use xlink:href="#m7d727e7af7" x="545.767654" y="330.712015" style="fill: #1f77b4; stroke: #2f2f2f"/>
     <use xlink:href="#m7d727e7af7" x="632.045298" y="317.478584" style="fill: #1f77b4; stroke: #2f2f2f"/>
     <use xlink:href="#m7d727e7af7" x="718.322942" y="314.323406" style="fill: #1f77b4; stroke: #2f2f2f"/>
    </g>
   </g>
   <g id="LineCollection_4">
    <path d="M 128.528966 186.838568 
L 128.528966 185.428422 
" clip-path="url(#p77696ba512)" style="fill: none; stroke: #2f2f2f; stroke-width: 0.9"/>
    <path d="M 214.806611 164.957224 
L 214.806611 162.163131 
" clip-path="url(#p77696ba512)" style="fill: none; stroke: #2f2f2f; stroke-width: 0.9"/>
    <path d="M 301.084255 145.39699 
L 301.084255 143.504432 
" clip-path="url(#p77696ba512)" style="fill: none; stroke: #2f2f2f; stroke-width: 0.9"/>
    <path d="M 387.361899 133.599533 
L 387.361899 131.635213 
" clip-path="url(#p77696ba512)" style="fill: none; stroke: #2f2f2f; stroke-width: 0.9"/>
    <path d="M 473.639543 137.737348 
L 473.639543 136.126783 
" clip-path="url(#p77696ba512)" style="fill: none; stroke: #2f2f2f; stroke-width: 0.9"/>
    <path d="M 559.917187 136.616953 
L 559.917187 135.220235 
" clip-path="url(#p77696ba512)" style="fill: none; stroke: #2f2f2f; stroke-width: 0.9"/>
    <path d="M 646.194832 201.99999 
L 646.194832 200.618954 
" clip-path="url(#p77696ba512)" style="fill: none; stroke: #2f2f2f; stroke-width: 0.9"/>
    <path d="M 732.472476 222.675164 
L 732.472476 220.316972 
" clip-path="url(#p77696ba512)" style="fill: none; stroke: #2f2f2f; stroke-width: 0.9"/>
   </g>
   <g id="line2d_28">
    <g clip-path="url(#p77696ba512)">
     <use xlink:href="#m7d727e7af7" x="128.528966" y="186.838568" style="fill: #1f77b4; stroke: #2f2f2f"/>
     <use xlink:href="#m7d727e7af7" x="214.806611" y="164.957224" style="fill: #1f77b4; stroke: #2f2f2f"/>
     <use xlink:href="#m7d727e7af7" x="301.084255" y="145.39699" style="fill: #1f77b4; stroke: #2f2f2f"/>
     <use xlink:href="#m7d727e7af7" x="387.361899" y="133.599533" style="fill: #1f77b4; stroke: #2f2f2f"/>
     <use xlink:href="#m7d727e7af7" x="473.639543" y="137.737348" style="fill: #1f77b4; stroke: #2f2f2f"/>
     <use xlink:href="#m7d727e7af7" x="559.917187" y="136.616953" style="fill: #1f77b4; stroke: #2f2f2f"/>
     <use xlink:href="#m7d727e7af7" x="646.194832" y="201.99999" style="fill: #1f77b4; stroke: #2f2f2f"/>
     <use xlink:href="#m7d727e7af7" x="732.472476" y="222.675164" style="fill: #1f77b4; stroke: #2f2f2f"/>
    </g>
   </g>
   <g id="line2d_29">
    <g clip-path="url(#p77696ba512)">
     <use xlink:href="#m7d727e7af7" x="128.528966" y="185.428422" style="fill: #1f77b4; stroke: #2f2f2f"/>
     <use xlink:href="#m7d727e7af7" x="214.806611" y="162.163131" style="fill: #1f77b4; stroke: #2f2f2f"/>
     <use xlink:href="#m7d727e7af7" x="301.084255" y="143.504432" style="fill: #1f77b4; stroke: #2f2f2f"/>
     <use xlink:href="#m7d727e7af7" x="387.361899" y="131.635213" style="fill: #1f77b4; stroke: #2f2f2f"/>
     <use xlink:href="#m7d727e7af7" x="473.639543" y="136.126783" style="fill: #1f77b4; stroke: #2f2f2f"/>
     <use xlink:href="#m7d727e7af7" x="559.917187" y="135.220235" style="fill: #1f77b4; stroke: #2f2f2f"/>
     <use xlink:href="#m7d727e7af7" x="646.194832" y="200.618954" style="fill: #1f77b4; stroke: #2f2f2f"/>
     <use xlink:href="#m7d727e7af7" x="732.472476" y="220.316972" style="fill: #1f77b4; stroke: #2f2f2f"/>
    </g>
   </g>
   <g id="LineCollection_5">
    <path d="M 142.6785 152.615983 
L 142.6785 150.40375 
" clip-path="url(#p77696ba512)" style="fill: none; stroke: #2f2f2f; stroke-width: 0.9"/>
    <path d="M 228.956144 133.566344 
L 228.956144 132.14158 
" clip-path="url(#p77696ba512)" style="fill: none; stroke: #2f2f2f; stroke-width: 0.9"/>
    <path d="M 315.233788 107.560645 
L 315.233788 105.842432 
" clip-path="url(#p77696ba512)" style="fill: none; stroke: #2f2f2f; stroke-width: 0.9"/>
    <path d="M 401.511433 93.74713 
L 401.511433 92.565259 
" clip-path="url(#p77696ba512)" style="fill: none; stroke: #2f2f2f; stroke-width: 0.9"/>
    <path d="M 487.789077 80.458277 
L 487.789077 78.258279 
" clip-path="url(#p77696ba512)" style="fill: none; stroke: #2f2f2f; stroke-width: 0.9"/>
    <path d="M 574.066721 77.53934 
L 574.066721 76.131056 
" clip-path="url(#p77696ba512)" style="fill: none; stroke: #2f2f2f; stroke-width: 0.9"/>
    <path d="M 660.344365 161.092821 
L 660.344365 158.40785 
" clip-path="url(#p77696ba512)" style="fill: none; stroke: #2f2f2f; stroke-width: 0.9"/>
    <path d="M 746.62201 153.435516 
L 746.62201 153.165302 
" clip-path="url(#p77696ba512)" style="fill: none; stroke: #2f2f2f; stroke-width: 0.9"/>
   </g>
   <g id="line2d_30">
    <g clip-path="url(#p77696ba512)">
     <use xlink:href="#m7d727e7af7" x="142.6785" y="152.615983" style="fill: #1f77b4; stroke: #2f2f2f"/>
     <use xlink:href="#m7d727e7af7" x="228.956144" y="133.566344" style="fill: #1f77b4; stroke: #2f2f2f"/>
     <use xlink:href="#m7d727e7af7" x="315.233788" y="107.560645" style="fill: #1f77b4; stroke: #2f2f2f"/>
     <use xlink:href="#m7d727e7af7" x="401.511433" y="93.74713" style="fill: #1f77b4; stroke: #2f2f2f"/>
     <use xlink:href="#m7d727e7af7" x="487.789077" y="80.458277" style="fill: #1f77b4; stroke: #2f2f2f"/>
     <use xlink:href="#m7d727e7af7" x="574.066721" y="77.53934" style="fill: #1f77b4; stroke: #2f2f2f"/>
     <use xlink:href="#m7d727e7af7" x="660.344365" y="161.092821" style="fill: #1f77b4; stroke: #2f2f2f"/>
     <use xlink:href="#m7d727e7af7" x="746.62201" y="153.435516" style="fill: #1f77b4; stroke: #2f2f2f"/>
    </g>
   </g>
   <g id="line2d_31">
    <g clip-path="url(#p77696ba512)">
     <use xlink:href="#m7d727e7af7" x="142.6785" y="150.40375" style="fill: #1f77b4; stroke: #2f2f2f"/>
     <use xlink:href="#m7d727e7af7" x="228.956144" y="132.14158" style="fill: #1f77b4; stroke: #2f2f2f"/>
     <use xlink:href="#m7d727e7af7" x="315.233788" y="105.842432" style="fill: #1f77b4; stroke: #2f2f2f"/>
     <use xlink:href="#m7d727e7af7" x="401.511433" y="92.565259" style="fill: #1f77b4; stroke: #2f2f2f"/>
     <use xlink:href="#m7d727e7af7" x="487.789077" y="78.258279" style="fill: #1f77b4; stroke: #2f2f2f"/>
     <use xlink:href="#m7d727e7af7" x="574.066721" y="76.131056" style="fill: #1f77b4; stroke: #2f2f2f"/>
     <use xlink:href="#m7d727e7af7" x="660.344365" y="158.40785" style="fill: #1f77b4; stroke: #2f2f2f"/>
     <use xlink:href="#m7d727e7af7" x="746.62201" y="153.165302" style="fill: #1f77b4; stroke: #2f2f2f"/>
    </g>
   </g>
   <g id="legend_1">
    <g id="patch_45">
     <path d="M 65.536187 47.588125 
L 76.336187 47.588125 
L 76.336187 39.533125 
L 65.536187 39.533125 
z
" style="fill: #009e73; stroke: #ffffff; stroke-width: 0.8; stroke-linejoin: miter"/>
    </g>
    <g id="text_58">
     <!-- COBRA -->
     <g transform="translate(83.536187 46.643125) scale(0.09 -0.09)">
      <use xlink:href="#HelveticaNeue-43"/>
      <use xlink:href="#HelveticaNeue-4f" transform="translate(72.199982 0)"/>
      <use xlink:href="#HelveticaNeue-42" transform="translate(148.199966 0)"/>
      <use xlink:href="#HelveticaNeue-52" transform="translate(216.699951 0)"/>
      <use xlink:href="#HelveticaNeue-41" transform="translate(285.199936 0)"/>
     </g>
    </g>
    <g id="patch_46">
     <path d="M 127.636188 47.588125 
L 138.436188 47.588125 
L 138.436188 39.533125 
L 127.636188 39.533125 
z
" style="fill: #0072b2; stroke: #ffffff; stroke-width: 0.8; stroke-linejoin: miter"/>
    </g>
    <g id="text_59">
     <!-- BRAVO -->
     <g transform="translate(145.636188 46.643125) scale(0.09 -0.09)">
      <defs>
       <path id="HelveticaNeue-56" d="M 2298 0 
L 3923 4570 
L 3290 4570 
L 1971 608 
L 1958 608 
L 653 4570 
L 0 4570 
L 1606 0 
L 2298 0 
z
" transform="scale(0.015625)"/>
      </defs>
      <use xlink:href="#HelveticaNeue-42"/>
      <use xlink:href="#HelveticaNeue-52" transform="translate(68.499985 0)"/>
      <use xlink:href="#HelveticaNeue-41" transform="translate(136.999969 0)"/>
      <use xlink:href="#HelveticaNeue-56" transform="translate(197.174957 0)"/>
      <use xlink:href="#HelveticaNeue-4f" transform="translate(258.274948 0)"/>
     </g>
    </g>
    <g id="patch_47">
     <path d="M 188.320094 47.588125 
L 199.120094 47.588125 
L 199.120094 39.533125 
L 188.320094 39.533125 
z
" style="fill: #d55e00; stroke: #ffffff; stroke-width: 0.8; stroke-linejoin: miter"/>
    </g>
    <g id="text_60">
     <!-- COBRAVO -->
     <g transform="translate(206.320094 46.643125) scale(0.09 -0.09)">
      <use xlink:href="#HelveticaNeue-43"/>
      <use xlink:href="#HelveticaNeue-4f" transform="translate(72.199982 0)"/>
      <use xlink:href="#HelveticaNeue-42" transform="translate(148.199966 0)"/>
      <use xlink:href="#HelveticaNeue-52" transform="translate(216.699951 0)"/>
      <use xlink:href="#HelveticaNeue-41" transform="translate(285.199936 0)"/>
      <use xlink:href="#HelveticaNeue-56" transform="translate(345.374924 0)"/>
      <use xlink:href="#HelveticaNeue-4f" transform="translate(406.474915 0)"/>
     </g>
    </g>
    <g id="patch_48">
     <path d="M 262.342281 47.588125 
L 273.142281 47.588125 
L 273.142281 39.533125 
L 262.342281 39.533125 
z
" style="fill: #e69f00; stroke: #ffffff; stroke-width: 0.8; stroke-linejoin: miter"/>
    </g>
    <g id="text_61">
     <!-- Elaan -->
     <g transform="translate(280.342281 46.643125) scale(0.09 -0.09)">
      <defs>
       <path id="HelveticaNeue-45" d="M 499 4570 
L 499 0 
L 3674 0 
L 3674 512 
L 1107 512 
L 1107 2093 
L 3482 2093 
L 3482 2605 
L 1107 2605 
L 1107 4058 
L 3654 4058 
L 3654 4570 
L 499 4570 
z
" transform="scale(0.015625)"/>
      </defs>
      <use xlink:href="#HelveticaNeue-45"/>
      <use xlink:href="#HelveticaNeue-6c" transform="translate(61.099991 0)"/>
      <use xlink:href="#HelveticaNeue-61" transform="translate(83.299988 0)"/>
      <use xlink:href="#HelveticaNeue-61" transform="translate(136.999985 0)"/>
      <use xlink:href="#HelveticaNeue-6e" transform="translate(190.699982 0)"/>
     </g>
    </g>
    <g id="patch_49">
     <path d="M 315.109 47.588125 
L 325.909 47.588125 
L 325.909 39.533125 
L 315.109 39.533125 
z
" style="fill: #cc79a7; stroke: #ffffff; stroke-width: 0.8; stroke-linejoin: miter"/>
    </g>
    <g id="text_62">
     <!-- Naive BR -->
     <g transform="translate(333.109 46.643125) scale(0.09 -0.09)">
      <defs>
       <path id="HelveticaNeue-4e" d="M 493 4570 
L 493 0 
L 1069 0 
L 1069 3667 
L 1082 3667 
L 3469 0 
L 4134 0 
L 4134 4570 
L 3558 4570 
L 3558 864 
L 3546 864 
L 1139 4570 
L 493 4570 
z
" transform="scale(0.015625)"/>
      </defs>
      <use xlink:href="#HelveticaNeue-4e"/>
      <use xlink:href="#HelveticaNeue-61" transform="translate(72.199982 0)"/>
      <use xlink:href="#HelveticaNeue-69" transform="translate(125.899979 0)"/>
      <use xlink:href="#HelveticaNeue-76" transform="translate(148.099976 0)"/>
      <use xlink:href="#HelveticaNeue-65" transform="translate(198.09996 0)"/>
      <use xlink:href="#HelveticaNeue-20" transform="translate(251.799957 0)"/>
      <use xlink:href="#HelveticaNeue-42" transform="translate(279.599945 0)"/>
      <use xlink:href="#HelveticaNeue-52" transform="translate(348.09993 0)"/>
     </g>
    </g>
   </g>
  </g>
 </g>
 <defs>
  <clipPath id="p77696ba512">
   <rect x="57.436188" y="31.433125" width="717.83" height="324.06"/>
  </clipPath>
 </defs>
</svg>
